<svg width="26" height="26" viewBox="0 0 26 26" fill="none" xmlns="http://www.w3.org/2000/svg">
<path d="M13.0044 9.41711C12.0529 9.41711 11.1405 9.79497 10.4678 10.4679C9.7949 11.1407 9.41699 12.0529 9.41699 13.0045C9.41699 13.9561 9.79485 14.8683 10.4678 15.5411C11.1405 16.214 12.0528 16.5919 13.0044 16.5919C13.9559 16.5919 14.8682 16.214 15.541 15.5411C16.2139 14.8683 16.5918 13.9561 16.5918 13.0045C16.5918 12.0529 16.2139 11.1407 15.541 10.4679C14.8682 9.79502 13.9559 9.41711 13.0044 9.41711ZM13.0044 15.994C12.2115 15.994 11.451 15.6791 10.8905 15.1184C10.3297 14.5579 10.0149 13.7973 10.0149 13.0045C10.0149 12.2116 10.3298 11.4511 10.8905 10.8906C11.451 10.3299 12.2115 10.015 13.0044 10.015C13.7972 10.015 14.5577 10.3299 15.1183 10.8906C15.679 11.4511 15.9939 12.2116 15.9939 13.0045C15.9939 13.7973 15.679 14.5579 15.1183 15.1184C14.5577 15.6791 13.7972 15.994 13.0044 15.994Z" fill="#47559C"/>
<path d="M25.7099 12.7054H21.5248C21.4474 10.5507 20.5561 8.50522 19.0305 6.98112C17.5049 5.45702 15.4586 4.56823 13.3035 4.49317V0.299034C13.3035 0.133876 13.1696 0 13.0045 0C12.8393 0 12.7055 0.133876 12.7055 0.299034V4.48421C10.5507 4.56157 8.50522 5.45285 6.98112 6.97845C5.45702 8.50405 4.56823 10.5504 4.49318 12.7054H0.299034C0.133875 12.7054 0 12.8393 0 13.0045C0 13.1696 0.133875 13.3035 0.299034 13.3035H4.48421C4.56157 15.4582 5.45285 17.5037 6.97845 19.0278C8.50405 20.552 10.5504 21.4407 12.7055 21.5158V25.701C12.7055 25.8661 12.8393 26 13.0045 26C13.1696 26 13.3035 25.8661 13.3035 25.701V21.5158C15.4568 21.4384 17.501 20.5484 19.0246 19.0249C20.5482 17.5012 21.4382 15.457 21.5155 13.3038H25.7007C25.8659 13.3038 25.9997 13.1699 25.9997 13.0048C25.9997 12.8396 25.8659 12.7057 25.7007 12.7057L25.7099 12.7054ZM13.3036 20.9175V19.2824C13.3036 19.1172 13.1697 18.9833 13.0045 18.9833C12.8394 18.9833 12.7055 19.1172 12.7055 19.2824V20.9177C10.7107 20.8409 8.81832 20.0139 7.40675 18.6022C5.99502 17.1906 5.16816 15.2982 5.09145 13.3034H6.72653C6.89169 13.3034 7.02557 13.1695 7.02557 13.0044C7.02557 12.8392 6.89169 12.7053 6.72653 12.7053H5.09145C5.16818 10.7105 5.99502 8.81815 7.40675 7.40658C8.81826 5.99485 10.7107 5.16799 12.7055 5.09128V6.72637C12.7055 6.89153 12.8394 7.0254 13.0045 7.0254C13.1697 7.0254 13.3036 6.89153 13.3036 6.72637V5.09128C15.2984 5.16802 17.1908 5.99485 18.6023 7.40658C20.0141 8.8181 20.8409 10.7105 20.9176 12.7053H19.2825C19.1174 12.7053 18.9835 12.8392 18.9835 13.0044C18.9835 13.1695 19.1174 13.3034 19.2825 13.3034H20.9178C20.8411 15.2982 20.0141 17.1906 18.6023 18.6022C17.1908 20.0139 15.2984 20.8407 13.3036 20.9175Z" fill="#47559C"/>
</svg>
