<svg width="15" height="12" viewBox="0 0 15 12" fill="none" xmlns="http://www.w3.org/2000/svg">
<path d="M13.377 1.93324H11.2979L10.2124 0.124908H4.78743L3.70243 1.93324H1.62285C1.17077 1.93324 0.266602 2.38532 0.266602 3.27548V10.5228C0.266602 11.2719 0.944726 11.8791 1.52882 11.8791H13.4055C13.9991 11.8791 14.7337 11.2434 14.7337 10.5373V3.28949C14.7337 2.83741 14.2812 1.93324 13.377 1.93324ZM13.8291 10.5373C13.8291 10.7159 13.5402 10.9654 13.4055 10.9754H1.53153C1.42665 10.9668 1.17122 10.7629 1.17122 10.5233V3.27593C1.17122 2.98931 1.55594 2.84509 1.6233 2.83786H4.21464L5.29964 1.02953H9.73096L10.5379 2.39934L10.7866 2.83786H13.3775C13.6962 2.83786 13.825 3.25423 13.8296 3.28994V10.5377L13.8291 10.5373ZM7.49993 3.28949C5.75218 3.28949 4.33535 4.70632 4.33535 6.45407C4.33535 8.20183 5.75218 9.61866 7.49993 9.61866C9.24769 9.61866 10.6645 8.20183 10.6645 6.45407C10.6645 4.70632 9.24769 3.28949 7.49993 3.28949ZM7.49993 8.71449C6.25354 8.71449 5.23952 7.70047 5.23952 6.45407C5.23952 5.20768 6.25354 4.19366 7.49993 4.19366C8.74633 4.19366 9.76035 5.20768 9.76035 6.45407C9.76035 7.70047 8.74633 8.71449 7.49993 8.71449Z" fill="white"/>
</svg>
