<svg width="28" height="28" viewBox="0 0 28 28" fill="none" xmlns="http://www.w3.org/2000/svg">
<g clip-path="url(#clip0_26_6938)">
<path d="M23.3291 10.2924C22.035 5.1371 16.8068 2.00703 11.6515 3.30112C7.62283 4.31245 4.69753 7.79441 4.39613 11.9371C1.53557 12.4089 -0.400972 15.1102 0.0707651 17.9707C0.490118 20.5138 2.69367 22.3762 5.27103 22.366H9.64555V20.6162H5.27103C3.33826 20.6162 1.77141 19.0493 1.77141 17.1166C1.77141 15.1838 3.33826 13.617 5.27103 13.617C5.75425 13.617 6.14594 13.2253 6.14594 12.742C6.14156 8.39328 9.66343 4.86435 14.0122 4.86003C17.7767 4.85626 21.0173 7.51761 21.7455 11.211C21.8174 11.5797 22.1167 11.8615 22.4891 11.9109C24.881 12.2515 26.5438 14.4666 26.2033 16.8584C25.8974 19.0062 24.0636 20.6054 21.8942 20.6162H18.3946V22.366H21.8942C25.2766 22.3558 28.0102 19.6055 28 16.2231C27.9914 13.4076 26.0642 10.9605 23.3291 10.2924Z" fill="white"/>
<path d="M13.3989 13.8707L9.89929 17.3703L11.1329 18.604L13.1452 16.6004V24.9908H14.895V16.6004L16.8985 18.604L18.1321 17.3703L14.6325 13.8707C14.2913 13.5315 13.7402 13.5315 13.3989 13.8707Z" fill="white"/>
</g>
<defs>
<clipPath id="clip0_26_6938">
<rect width="28" height="28" fill="white"/>
</clipPath>
</defs>
</svg>
