<svg width="17" height="22" viewBox="0 0 17 22" fill="none" xmlns="http://www.w3.org/2000/svg">
<path fill-rule="evenodd" clip-rule="evenodd" d="M1.13024 2.26563H3.84315V3.26857H1.9233C1.67075 3.27125 1.42927 3.37264 1.25052 3.55107C1.07177 3.7295 0.96994 3.97079 0.966808 4.22334V19.1899C0.969059 19.4428 1.07061 19.6846 1.24955 19.8632C1.42849 20.0418 1.67047 20.1429 1.9233 20.1447H15.0767C15.3296 20.1438 15.572 20.0429 15.7508 19.8641C15.9297 19.6852 16.0306 19.4429 16.0315 19.1899V4.22334C16.0292 3.97081 15.9279 3.72926 15.7493 3.55069C15.5708 3.37213 15.3292 3.27081 15.0767 3.26857H13.1569V2.26563H15.868C16.1677 2.26654 16.4548 2.38585 16.6669 2.59757C16.8789 2.80929 16.9986 3.09624 17 3.39587V20.0088C16.9977 20.3082 16.8777 20.5946 16.6659 20.8061C16.454 21.0176 16.1674 21.1372 15.868 21.139H1.13024C0.830898 21.1377 0.544206 21.0182 0.332539 20.8065C0.120872 20.5948 0.00135757 20.3081 0 20.0088L0 3.39587C0.000907516 3.09639 0.120277 2.80944 0.332041 2.59768C0.543805 2.38591 0.830759 2.26654 1.13024 2.26563ZM8.69955 5.6099H14.6638V6.17588H8.69095V5.6099H8.69955ZM8.69955 8.69267H10.7467V9.26037H8.69095V8.69267H8.69955ZM8.69955 7.08763H11.5793V7.65533H8.69095V7.08763H8.69955ZM13.0227 6.92937H13.5164C13.562 6.92937 13.6058 6.94749 13.638 6.97975C13.6703 7.01202 13.6884 7.05577 13.6884 7.1014V7.67426H14.2613C14.3069 7.67426 14.3507 7.69238 14.3829 7.72464C14.4152 7.7569 14.4333 7.80066 14.4333 7.84629V8.34173C14.4333 8.38736 14.4152 8.43111 14.3829 8.46338C14.3507 8.49564 14.3069 8.51376 14.2613 8.51376H13.6764V9.07286C13.6764 9.11849 13.6583 9.16224 13.626 9.1945C13.5937 9.22676 13.55 9.24489 13.5044 9.24489H13.0141C12.9684 9.24489 12.9247 9.22676 12.8924 9.1945C12.8602 9.16224 12.842 9.11849 12.842 9.07286V8.50172H12.2726C12.227 8.50172 12.1832 8.4836 12.151 8.45133C12.1187 8.41907 12.1006 8.37532 12.1006 8.32969V7.83941C12.1006 7.79378 12.1187 7.75002 12.151 7.71776C12.1832 7.6855 12.227 7.66738 12.2726 7.66738H12.8455V7.09796C12.8455 7.05233 12.8636 7.00857 12.8959 6.97631C12.9281 6.94405 12.9719 6.92593 13.0175 6.92593L13.0227 6.92937ZM4.07711 8.01832C4.10119 7.96499 4.12184 7.90478 4.1356 7.86521C4.07897 7.79487 4.02723 7.72073 3.98077 7.64329L3.81907 7.39729C3.76985 7.33091 3.73954 7.25244 3.73133 7.17021C3.72913 7.1418 3.73447 7.11331 3.74681 7.08763C3.75818 7.06224 3.77671 7.04071 3.80014 7.0257C3.81178 7.01716 3.82451 7.01022 3.83799 7.00506C3.82933 6.85552 3.82933 6.7056 3.83799 6.55606C3.84164 6.52179 3.84797 6.48785 3.85691 6.45456C3.89965 6.31107 3.99403 6.18849 4.12184 6.1105C4.19094 6.06618 4.26633 6.03254 4.34548 6.01073C4.39537 5.99696 4.30247 5.8387 4.35408 5.8387C4.60352 5.81289 5.00779 6.04169 5.18154 6.2292C5.27658 6.33562 5.33136 6.47196 5.33637 6.61455L5.32605 7.02398C5.34648 7.02855 5.36516 7.03895 5.37981 7.05391C5.39447 7.06887 5.40447 7.08775 5.40862 7.10828C5.41812 7.18273 5.40302 7.25825 5.36561 7.32332L5.19358 7.61921C5.12717 7.72641 5.04804 7.82518 4.9579 7.91338C4.96535 7.92524 4.97339 7.93673 4.98199 7.94778C5.28476 8.39334 5.69419 8.16454 6.17071 8.51204L6.15523 8.53097V9.28962H2.92451V8.52408C2.92843 8.51436 2.93578 8.50641 2.94515 8.50172C3.25309 8.32969 3.96357 8.2626 4.07195 8.01832H4.07711ZM2.52884 4.99919H6.55606C6.64731 4.99919 6.73482 5.03544 6.79935 5.09996C6.86387 5.16449 6.90012 5.252 6.90012 5.34325V9.78162C6.89884 9.87153 6.8624 9.95736 6.79862 10.0207C6.7351 10.0856 6.64853 10.1227 6.55778 10.124H2.53228C2.44103 10.124 2.35352 10.0877 2.28899 10.0232C2.22447 9.95867 2.18822 9.87115 2.18822 9.7799V5.34153C2.18822 5.25028 2.22447 5.16277 2.28899 5.09824C2.35352 5.03372 2.44103 4.99747 2.53228 4.99747L2.52884 4.99919ZM6.55262 5.29164H2.53228C2.51923 5.2921 2.50687 5.29766 2.49787 5.30712C2.49285 5.31131 2.48884 5.31658 2.48616 5.32254C2.48348 5.3285 2.48219 5.335 2.48239 5.34153V9.78162C2.48311 9.79412 2.48866 9.80584 2.49787 9.81431C2.50221 9.81915 2.50751 9.82303 2.51344 9.8257C2.51936 9.82837 2.52578 9.82976 2.53228 9.82979H6.55606C6.56845 9.82864 6.58004 9.8232 6.58884 9.8144C6.59764 9.8056 6.60308 9.79401 6.60423 9.78162V5.34153C6.6042 5.33503 6.60281 5.32861 6.60014 5.32268C6.59747 5.31676 6.59359 5.31146 6.58875 5.30712C6.58028 5.29791 6.56855 5.29236 6.55606 5.29164H6.55262ZM2.37057 17.492H12.0266V18.0631H2.37057V17.5006V17.492ZM2.37057 15.333H14.6225V15.8956H2.37057V15.333ZM2.37057 12.7767H5.29508L5.82321 11.7066L6.864 13.205L7.91338 11.1544L8.99889 13.2824L9.46165 12.8506L9.65088 12.7767H11.1355L12.0662 11.8167L12.9263 12.7767H14.6225V13.3392H12.6769L12.0524 12.639L11.3746 13.3392H9.76098L8.82858 14.1994L7.91338 12.3862L6.92765 14.2905L5.89547 12.8059L5.63226 13.3392H2.36369V12.7767H2.37057ZM5.41034 1.57924H6.69197C6.73381 1.15396 6.92971 0.758661 7.24276 0.467787C7.55582 0.176913 7.96442 0.0105393 8.39162 0C8.81551 0.0100857 9.22128 0.173917 9.53334 0.460974C9.8454 0.748031 10.0425 1.13874 10.0878 1.56031L11.5879 1.57924C11.6381 1.57924 11.6863 1.59917 11.7217 1.63466C11.7572 1.67015 11.7772 1.71828 11.7772 1.76847V3.5765C11.7772 3.62669 11.7572 3.67482 11.7217 3.71031C11.6863 3.7458 11.6381 3.76574 11.5879 3.76574H5.41206C5.36187 3.76574 5.31374 3.7458 5.27825 3.71031C5.24277 3.67482 5.22283 3.62669 5.22283 3.5765V1.76847C5.22237 1.74364 5.22689 1.71896 5.23613 1.69591C5.24537 1.67286 5.25913 1.65189 5.27662 1.63425C5.2941 1.6166 5.31494 1.60265 5.33791 1.5932C5.36088 1.58375 5.38551 1.579 5.41034 1.57924ZM7.68802 2.35509C7.80649 2.52232 7.96343 2.65862 8.14562 2.75248C8.29454 2.79544 8.45257 2.79544 8.6015 2.75248C8.83591 2.62581 9.02301 2.42665 9.13479 2.18478C9.14739 2.12307 9.15373 2.06025 9.15371 1.99727C9.16074 1.89265 9.1462 1.78771 9.11099 1.68894C9.07579 1.59018 9.02067 1.4997 8.94906 1.42311C8.87744 1.34653 8.79086 1.28547 8.69467 1.24372C8.59849 1.20198 8.49475 1.18044 8.3899 1.18044C8.28505 1.18044 8.18131 1.20198 8.08513 1.24372C7.98895 1.28547 7.90236 1.34653 7.83075 1.42311C7.75913 1.4997 7.70401 1.59018 7.66881 1.68894C7.6336 1.78771 7.61906 1.89265 7.62609 1.99727C7.62645 2.11551 7.65043 2.23248 7.69662 2.34133L7.68802 2.35509Z" fill="#535E6B"/>
</svg>
