<svg width="22" height="23" viewBox="0 0 22 23" fill="none" xmlns="http://www.w3.org/2000/svg">
<mask id="path-1-outside-1_1433_10196" maskUnits="userSpaceOnUse" x="0" y="0" width="22" height="23" fill="black">
<rect fill="white" width="22" height="23"/>
<path d="M12.1218 1.10494C12.2778 0.956334 12.5213 0.966949 12.6653 1.12794C12.8093 1.28894 12.7991 1.54016 12.643 1.68877C11.9589 2.3416 11.4514 3.13065 11.1513 4.07715C10.8736 4.94759 10.7673 5.95602 10.853 7.11659C10.9953 7.10421 11.1376 7.08652 11.2799 7.06175C11.5371 7.01575 11.796 6.94852 12.0566 6.85652C12.0704 6.85122 12.0841 6.84768 12.0978 6.84414C12.9602 6.64422 13.7352 6.58938 14.4348 6.66015C15.1463 6.73091 15.779 6.9326 16.3414 7.24397C18.1623 8.25417 19.0454 9.74028 19.3025 11.3998C19.3317 11.5838 19.3523 11.7713 19.3643 11.9588H19.8169C19.9678 11.9588 20.0913 12.0862 20.0913 12.2419C20.0913 12.2684 20.0878 12.2932 20.081 12.318L19.1568 16.334C19.1277 16.4649 19.0145 16.5516 18.891 16.5516H18.4847C18.3424 16.8966 18.1846 17.2345 18.0183 17.5653C17.9583 17.6821 17.8949 17.8042 17.8263 17.9298H20.7257C20.8765 17.9298 21 18.0572 21 18.2128C21 18.3101 20.952 18.3968 20.8783 18.4481L18.6767 20.1607L20.8988 22.0219C21.0154 22.1209 21.0343 22.2979 20.9383 22.4182C20.8851 22.4872 20.8062 22.5225 20.7257 22.5225V22.5243H13.4249C12.9277 22.6694 12.4441 22.7065 11.9726 22.657C11.4702 22.6057 10.985 22.4571 10.5169 22.2448C9.90138 22.5632 9.25841 22.7525 8.57771 22.7384C7.82843 22.7225 7.04829 22.4606 6.23042 21.8556V21.8538C6.22013 21.8467 6.20984 21.8379 6.20127 21.829C5.38684 21.0948 4.71986 20.3252 4.14889 19.545C3.58136 18.7701 3.10642 17.9811 2.67777 17.2026C2.55946 16.9868 2.44972 16.7692 2.35028 16.5498H1.60271C1.45525 16.5498 1.33523 16.4295 1.32837 16.2809L1.00089 12.2667C0.988883 12.111 1.10033 11.9747 1.25122 11.9624L1.27351 11.9606H1.60614C1.73988 10.7876 2.12395 9.70312 2.71892 8.81677C3.38933 7.81719 4.3255 7.07236 5.47085 6.73799C6.43103 6.45669 7.5318 6.46554 8.73888 6.85652V6.85829C9.03379 6.95029 9.33042 7.02283 9.62362 7.06883C9.77622 7.09359 9.9271 7.11129 10.0797 7.1219C10.03 6.38769 10.0506 5.70833 10.138 5.07851C9.14867 5.65703 8.23308 5.87286 7.38606 5.76671C5.31139 5.50311 4.30835 3.72332 3.49392 1.97892L4.60498 1.86038C7.5198 1.4004 9.26012 2.43359 10.2632 4.40091C10.3077 4.20807 10.3592 4.01877 10.4175 3.83655C10.7621 2.75028 11.3416 1.84977 12.1218 1.10494ZM17.6411 15.9872V15.1327C17.6411 14.9753 17.7645 14.8496 17.9154 14.8496C18.068 14.8496 18.1898 14.977 18.1898 15.1327V15.9872H18.6716L19.4689 12.525H1.57185L1.85476 15.9872H2.53545V14.6161C2.53545 14.4604 2.6589 14.333 2.80979 14.333C2.96067 14.333 3.08413 14.4604 3.08413 14.6161V15.9872H4.22605V15.1327C4.22605 14.9753 4.3495 14.8496 4.50039 14.8496C4.65299 14.8496 4.77472 14.977 4.77472 15.1327V15.9872H5.83606V14.6161C5.83606 14.4604 5.95951 14.333 6.1104 14.333C6.26128 14.333 6.38473 14.4604 6.38473 14.6161V15.9872H7.52666V15.1327C7.52666 14.9753 7.65011 14.8496 7.801 14.8496C7.95188 14.8496 8.07533 14.977 8.07533 15.1327V15.9872H9.33385V14.6161C9.33385 14.4604 9.4573 14.333 9.60819 14.333C9.75907 14.333 9.88252 14.4604 9.88252 14.6161V15.9872H11.0244V15.1327C11.0244 14.9753 11.1479 14.8496 11.2988 14.8496C11.4497 14.8496 11.5731 14.977 11.5731 15.1327V15.9872H12.6345V14.6161C12.6345 14.4604 12.7579 14.333 12.9088 14.333C13.0597 14.333 13.1831 14.4604 13.1831 14.6161V15.9872H14.3251V15.1327C14.3251 14.9753 14.4485 14.8496 14.5994 14.8496C14.7503 14.8496 14.8737 14.977 14.8737 15.1327V15.9872H15.9488V14.6161C15.9488 14.4604 16.0722 14.333 16.2231 14.333C16.374 14.333 16.4975 14.4604 16.4975 14.6161V15.9872H17.6411ZM16.2334 16.5534H16.2248H16.2163H14.6251C14.6165 16.5534 14.608 16.5551 14.5994 16.5551C14.5908 16.5551 14.5822 16.5551 14.5737 16.5534H12.9139H12.9071H12.9002H11.3211C11.3125 16.5534 11.3056 16.5551 11.2971 16.5551C11.2885 16.5551 11.2816 16.5551 11.2731 16.5534H9.60819H9.60647H7.82671C7.81814 16.5534 7.81128 16.5551 7.80271 16.5551C7.79414 16.5551 7.78728 16.5551 7.77871 16.5534H6.11211H6.1104H5.74176C5.84806 16.7285 5.96294 16.8983 6.08639 17.0647C6.4979 17.6202 6.99342 18.1226 7.54552 18.5879C7.71012 18.7259 7.73584 18.9754 7.6021 19.147C7.46836 19.3168 7.2266 19.3433 7.06029 19.2036C6.46189 18.6994 5.92351 18.1545 5.47428 17.5459C5.24281 17.2327 5.03363 16.9019 4.85188 16.5534H4.52439C4.51582 16.5534 4.50896 16.5551 4.50039 16.5551C4.49181 16.5551 4.48496 16.5551 4.47638 16.5534H3.20929C3.25387 16.64 3.29845 16.7267 3.34646 16.8134C3.75968 17.5618 4.21576 18.3208 4.76272 19.0691C5.30111 19.8051 5.92694 20.5287 6.68479 21.2151C7.3672 21.7176 7.99817 21.9352 8.59143 21.9476C9.18982 21.96 9.76421 21.7689 10.3215 21.4575C10.4329 21.3938 10.5615 21.3956 10.6695 21.4469C11.1187 21.6663 11.5783 21.8202 12.0481 21.8697C12.5093 21.9175 12.9842 21.8644 13.478 21.6733C14.1073 21.4292 14.7571 20.8613 15.3555 20.1749C15.8991 19.5521 16.3946 18.8374 16.7924 18.1792L16.8249 18.1032C16.8421 18.0625 16.8678 18.0289 16.897 18.0023C17.0633 17.7192 17.2107 17.4486 17.3359 17.2026C17.4439 16.9903 17.5468 16.7745 17.6428 16.5569H16.2334V16.5534ZM18.5944 11.9606C18.5824 11.8137 18.5653 11.6687 18.543 11.5254C18.3218 10.0994 17.5571 8.82031 15.9779 7.9481C15.503 7.6845 14.9663 7.51466 14.3593 7.4545C13.7455 7.39258 13.0597 7.44212 12.2898 7.61727C11.9966 7.71988 11.7017 7.79596 11.4051 7.84903C11.1187 7.89857 10.829 7.9251 10.5375 7.93041C10.5152 7.93218 10.4929 7.93218 10.4723 7.93041C10.15 7.93218 9.82765 7.90564 9.50702 7.85257C9.17439 7.79949 8.84347 7.71988 8.51256 7.6155L8.50913 7.61373V7.6155C7.45122 7.27228 6.49961 7.26166 5.67832 7.50227C4.713 7.78534 3.92257 8.41693 3.3516 9.26791C2.84408 10.0233 2.50973 10.9504 2.38285 11.9606H18.5944ZM19.9061 18.4977H17.5039C17.0736 19.2213 16.5283 20.0156 15.9282 20.7038C15.503 21.1904 15.0469 21.6291 14.5771 21.9582H19.9524L18.0715 20.3819C18.0492 20.3659 18.0286 20.3465 18.0114 20.3217C17.9206 20.1979 17.9446 20.0209 18.0646 19.9254L19.9061 18.4977Z"/>
</mask>
<path d="M12.1218 1.10494C12.2778 0.956334 12.5213 0.966949 12.6653 1.12794C12.8093 1.28894 12.7991 1.54016 12.643 1.68877C11.9589 2.3416 11.4514 3.13065 11.1513 4.07715C10.8736 4.94759 10.7673 5.95602 10.853 7.11659C10.9953 7.10421 11.1376 7.08652 11.2799 7.06175C11.5371 7.01575 11.796 6.94852 12.0566 6.85652C12.0704 6.85122 12.0841 6.84768 12.0978 6.84414C12.9602 6.64422 13.7352 6.58938 14.4348 6.66015C15.1463 6.73091 15.779 6.9326 16.3414 7.24397C18.1623 8.25417 19.0454 9.74028 19.3025 11.3998C19.3317 11.5838 19.3523 11.7713 19.3643 11.9588H19.8169C19.9678 11.9588 20.0913 12.0862 20.0913 12.2419C20.0913 12.2684 20.0878 12.2932 20.081 12.318L19.1568 16.334C19.1277 16.4649 19.0145 16.5516 18.891 16.5516H18.4847C18.3424 16.8966 18.1846 17.2345 18.0183 17.5653C17.9583 17.6821 17.8949 17.8042 17.8263 17.9298H20.7257C20.8765 17.9298 21 18.0572 21 18.2128C21 18.3101 20.952 18.3968 20.8783 18.4481L18.6767 20.1607L20.8988 22.0219C21.0154 22.1209 21.0343 22.2979 20.9383 22.4182C20.8851 22.4872 20.8062 22.5225 20.7257 22.5225V22.5243H13.4249C12.9277 22.6694 12.4441 22.7065 11.9726 22.657C11.4702 22.6057 10.985 22.4571 10.5169 22.2448C9.90138 22.5632 9.25841 22.7525 8.57771 22.7384C7.82843 22.7225 7.04829 22.4606 6.23042 21.8556V21.8538C6.22013 21.8467 6.20984 21.8379 6.20127 21.829C5.38684 21.0948 4.71986 20.3252 4.14889 19.545C3.58136 18.7701 3.10642 17.9811 2.67777 17.2026C2.55946 16.9868 2.44972 16.7692 2.35028 16.5498H1.60271C1.45525 16.5498 1.33523 16.4295 1.32837 16.2809L1.00089 12.2667C0.988883 12.111 1.10033 11.9747 1.25122 11.9624L1.27351 11.9606H1.60614C1.73988 10.7876 2.12395 9.70312 2.71892 8.81677C3.38933 7.81719 4.3255 7.07236 5.47085 6.73799C6.43103 6.45669 7.5318 6.46554 8.73888 6.85652V6.85829C9.03379 6.95029 9.33042 7.02283 9.62362 7.06883C9.77622 7.09359 9.9271 7.11129 10.0797 7.1219C10.03 6.38769 10.0506 5.70833 10.138 5.07851C9.14867 5.65703 8.23308 5.87286 7.38606 5.76671C5.31139 5.50311 4.30835 3.72332 3.49392 1.97892L4.60498 1.86038C7.5198 1.4004 9.26012 2.43359 10.2632 4.40091C10.3077 4.20807 10.3592 4.01877 10.4175 3.83655C10.7621 2.75028 11.3416 1.84977 12.1218 1.10494ZM17.6411 15.9872V15.1327C17.6411 14.9753 17.7645 14.8496 17.9154 14.8496C18.068 14.8496 18.1898 14.977 18.1898 15.1327V15.9872H18.6716L19.4689 12.525H1.57185L1.85476 15.9872H2.53545V14.6161C2.53545 14.4604 2.6589 14.333 2.80979 14.333C2.96067 14.333 3.08413 14.4604 3.08413 14.6161V15.9872H4.22605V15.1327C4.22605 14.9753 4.3495 14.8496 4.50039 14.8496C4.65299 14.8496 4.77472 14.977 4.77472 15.1327V15.9872H5.83606V14.6161C5.83606 14.4604 5.95951 14.333 6.1104 14.333C6.26128 14.333 6.38473 14.4604 6.38473 14.6161V15.9872H7.52666V15.1327C7.52666 14.9753 7.65011 14.8496 7.801 14.8496C7.95188 14.8496 8.07533 14.977 8.07533 15.1327V15.9872H9.33385V14.6161C9.33385 14.4604 9.4573 14.333 9.60819 14.333C9.75907 14.333 9.88252 14.4604 9.88252 14.6161V15.9872H11.0244V15.1327C11.0244 14.9753 11.1479 14.8496 11.2988 14.8496C11.4497 14.8496 11.5731 14.977 11.5731 15.1327V15.9872H12.6345V14.6161C12.6345 14.4604 12.7579 14.333 12.9088 14.333C13.0597 14.333 13.1831 14.4604 13.1831 14.6161V15.9872H14.3251V15.1327C14.3251 14.9753 14.4485 14.8496 14.5994 14.8496C14.7503 14.8496 14.8737 14.977 14.8737 15.1327V15.9872H15.9488V14.6161C15.9488 14.4604 16.0722 14.333 16.2231 14.333C16.374 14.333 16.4975 14.4604 16.4975 14.6161V15.9872H17.6411ZM16.2334 16.5534H16.2248H16.2163H14.6251C14.6165 16.5534 14.608 16.5551 14.5994 16.5551C14.5908 16.5551 14.5822 16.5551 14.5737 16.5534H12.9139H12.9071H12.9002H11.3211C11.3125 16.5534 11.3056 16.5551 11.2971 16.5551C11.2885 16.5551 11.2816 16.5551 11.2731 16.5534H9.60819H9.60647H7.82671C7.81814 16.5534 7.81128 16.5551 7.80271 16.5551C7.79414 16.5551 7.78728 16.5551 7.77871 16.5534H6.11211H6.1104H5.74176C5.84806 16.7285 5.96294 16.8983 6.08639 17.0647C6.4979 17.6202 6.99342 18.1226 7.54552 18.5879C7.71012 18.7259 7.73584 18.9754 7.6021 19.147C7.46836 19.3168 7.2266 19.3433 7.06029 19.2036C6.46189 18.6994 5.92351 18.1545 5.47428 17.5459C5.24281 17.2327 5.03363 16.9019 4.85188 16.5534H4.52439C4.51582 16.5534 4.50896 16.5551 4.50039 16.5551C4.49181 16.5551 4.48496 16.5551 4.47638 16.5534H3.20929C3.25387 16.64 3.29845 16.7267 3.34646 16.8134C3.75968 17.5618 4.21576 18.3208 4.76272 19.0691C5.30111 19.8051 5.92694 20.5287 6.68479 21.2151C7.3672 21.7176 7.99817 21.9352 8.59143 21.9476C9.18982 21.96 9.76421 21.7689 10.3215 21.4575C10.4329 21.3938 10.5615 21.3956 10.6695 21.4469C11.1187 21.6663 11.5783 21.8202 12.0481 21.8697C12.5093 21.9175 12.9842 21.8644 13.478 21.6733C14.1073 21.4292 14.7571 20.8613 15.3555 20.1749C15.8991 19.5521 16.3946 18.8374 16.7924 18.1792L16.8249 18.1032C16.8421 18.0625 16.8678 18.0289 16.897 18.0023C17.0633 17.7192 17.2107 17.4486 17.3359 17.2026C17.4439 16.9903 17.5468 16.7745 17.6428 16.5569H16.2334V16.5534ZM18.5944 11.9606C18.5824 11.8137 18.5653 11.6687 18.543 11.5254C18.3218 10.0994 17.5571 8.82031 15.9779 7.9481C15.503 7.6845 14.9663 7.51466 14.3593 7.4545C13.7455 7.39258 13.0597 7.44212 12.2898 7.61727C11.9966 7.71988 11.7017 7.79596 11.4051 7.84903C11.1187 7.89857 10.829 7.9251 10.5375 7.93041C10.5152 7.93218 10.4929 7.93218 10.4723 7.93041C10.15 7.93218 9.82765 7.90564 9.50702 7.85257C9.17439 7.79949 8.84347 7.71988 8.51256 7.6155L8.50913 7.61373V7.6155C7.45122 7.27228 6.49961 7.26166 5.67832 7.50227C4.713 7.78534 3.92257 8.41693 3.3516 9.26791C2.84408 10.0233 2.50973 10.9504 2.38285 11.9606H18.5944ZM19.9061 18.4977H17.5039C17.0736 19.2213 16.5283 20.0156 15.9282 20.7038C15.503 21.1904 15.0469 21.6291 14.5771 21.9582H19.9524L18.0715 20.3819C18.0492 20.3659 18.0286 20.3465 18.0114 20.3217C17.9206 20.1979 17.9446 20.0209 18.0646 19.9254L19.9061 18.4977Z" fill="#020E1A"/>
<path d="M12.1218 1.10494C12.2778 0.956334 12.5213 0.966949 12.6653 1.12794C12.8093 1.28894 12.7991 1.54016 12.643 1.68877C11.9589 2.3416 11.4514 3.13065 11.1513 4.07715C10.8736 4.94759 10.7673 5.95602 10.853 7.11659C10.9953 7.10421 11.1376 7.08652 11.2799 7.06175C11.5371 7.01575 11.796 6.94852 12.0566 6.85652C12.0704 6.85122 12.0841 6.84768 12.0978 6.84414C12.9602 6.64422 13.7352 6.58938 14.4348 6.66015C15.1463 6.73091 15.779 6.9326 16.3414 7.24397C18.1623 8.25417 19.0454 9.74028 19.3025 11.3998C19.3317 11.5838 19.3523 11.7713 19.3643 11.9588H19.8169C19.9678 11.9588 20.0913 12.0862 20.0913 12.2419C20.0913 12.2684 20.0878 12.2932 20.081 12.318L19.1568 16.334C19.1277 16.4649 19.0145 16.5516 18.891 16.5516H18.4847C18.3424 16.8966 18.1846 17.2345 18.0183 17.5653C17.9583 17.6821 17.8949 17.8042 17.8263 17.9298H20.7257C20.8765 17.9298 21 18.0572 21 18.2128C21 18.3101 20.952 18.3968 20.8783 18.4481L18.6767 20.1607L20.8988 22.0219C21.0154 22.1209 21.0343 22.2979 20.9383 22.4182C20.8851 22.4872 20.8062 22.5225 20.7257 22.5225V22.5243H13.4249C12.9277 22.6694 12.4441 22.7065 11.9726 22.657C11.4702 22.6057 10.985 22.4571 10.5169 22.2448C9.90138 22.5632 9.25841 22.7525 8.57771 22.7384C7.82843 22.7225 7.04829 22.4606 6.23042 21.8556V21.8538C6.22013 21.8467 6.20984 21.8379 6.20127 21.829C5.38684 21.0948 4.71986 20.3252 4.14889 19.545C3.58136 18.7701 3.10642 17.9811 2.67777 17.2026C2.55946 16.9868 2.44972 16.7692 2.35028 16.5498H1.60271C1.45525 16.5498 1.33523 16.4295 1.32837 16.2809L1.00089 12.2667C0.988883 12.111 1.10033 11.9747 1.25122 11.9624L1.27351 11.9606H1.60614C1.73988 10.7876 2.12395 9.70312 2.71892 8.81677C3.38933 7.81719 4.3255 7.07236 5.47085 6.73799C6.43103 6.45669 7.5318 6.46554 8.73888 6.85652V6.85829C9.03379 6.95029 9.33042 7.02283 9.62362 7.06883C9.77622 7.09359 9.9271 7.11129 10.0797 7.1219C10.03 6.38769 10.0506 5.70833 10.138 5.07851C9.14867 5.65703 8.23308 5.87286 7.38606 5.76671C5.31139 5.50311 4.30835 3.72332 3.49392 1.97892L4.60498 1.86038C7.5198 1.4004 9.26012 2.43359 10.2632 4.40091C10.3077 4.20807 10.3592 4.01877 10.4175 3.83655C10.7621 2.75028 11.3416 1.84977 12.1218 1.10494ZM17.6411 15.9872V15.1327C17.6411 14.9753 17.7645 14.8496 17.9154 14.8496C18.068 14.8496 18.1898 14.977 18.1898 15.1327V15.9872H18.6716L19.4689 12.525H1.57185L1.85476 15.9872H2.53545V14.6161C2.53545 14.4604 2.6589 14.333 2.80979 14.333C2.96067 14.333 3.08413 14.4604 3.08413 14.6161V15.9872H4.22605V15.1327C4.22605 14.9753 4.3495 14.8496 4.50039 14.8496C4.65299 14.8496 4.77472 14.977 4.77472 15.1327V15.9872H5.83606V14.6161C5.83606 14.4604 5.95951 14.333 6.1104 14.333C6.26128 14.333 6.38473 14.4604 6.38473 14.6161V15.9872H7.52666V15.1327C7.52666 14.9753 7.65011 14.8496 7.801 14.8496C7.95188 14.8496 8.07533 14.977 8.07533 15.1327V15.9872H9.33385V14.6161C9.33385 14.4604 9.4573 14.333 9.60819 14.333C9.75907 14.333 9.88252 14.4604 9.88252 14.6161V15.9872H11.0244V15.1327C11.0244 14.9753 11.1479 14.8496 11.2988 14.8496C11.4497 14.8496 11.5731 14.977 11.5731 15.1327V15.9872H12.6345V14.6161C12.6345 14.4604 12.7579 14.333 12.9088 14.333C13.0597 14.333 13.1831 14.4604 13.1831 14.6161V15.9872H14.3251V15.1327C14.3251 14.9753 14.4485 14.8496 14.5994 14.8496C14.7503 14.8496 14.8737 14.977 14.8737 15.1327V15.9872H15.9488V14.6161C15.9488 14.4604 16.0722 14.333 16.2231 14.333C16.374 14.333 16.4975 14.4604 16.4975 14.6161V15.9872H17.6411ZM16.2334 16.5534H16.2248H16.2163H14.6251C14.6165 16.5534 14.608 16.5551 14.5994 16.5551C14.5908 16.5551 14.5822 16.5551 14.5737 16.5534H12.9139H12.9071H12.9002H11.3211C11.3125 16.5534 11.3056 16.5551 11.2971 16.5551C11.2885 16.5551 11.2816 16.5551 11.2731 16.5534H9.60819H9.60647H7.82671C7.81814 16.5534 7.81128 16.5551 7.80271 16.5551C7.79414 16.5551 7.78728 16.5551 7.77871 16.5534H6.11211H6.1104H5.74176C5.84806 16.7285 5.96294 16.8983 6.08639 17.0647C6.4979 17.6202 6.99342 18.1226 7.54552 18.5879C7.71012 18.7259 7.73584 18.9754 7.6021 19.147C7.46836 19.3168 7.2266 19.3433 7.06029 19.2036C6.46189 18.6994 5.92351 18.1545 5.47428 17.5459C5.24281 17.2327 5.03363 16.9019 4.85188 16.5534H4.52439C4.51582 16.5534 4.50896 16.5551 4.50039 16.5551C4.49181 16.5551 4.48496 16.5551 4.47638 16.5534H3.20929C3.25387 16.64 3.29845 16.7267 3.34646 16.8134C3.75968 17.5618 4.21576 18.3208 4.76272 19.0691C5.30111 19.8051 5.92694 20.5287 6.68479 21.2151C7.3672 21.7176 7.99817 21.9352 8.59143 21.9476C9.18982 21.96 9.76421 21.7689 10.3215 21.4575C10.4329 21.3938 10.5615 21.3956 10.6695 21.4469C11.1187 21.6663 11.5783 21.8202 12.0481 21.8697C12.5093 21.9175 12.9842 21.8644 13.478 21.6733C14.1073 21.4292 14.7571 20.8613 15.3555 20.1749C15.8991 19.5521 16.3946 18.8374 16.7924 18.1792L16.8249 18.1032C16.8421 18.0625 16.8678 18.0289 16.897 18.0023C17.0633 17.7192 17.2107 17.4486 17.3359 17.2026C17.4439 16.9903 17.5468 16.7745 17.6428 16.5569H16.2334V16.5534ZM18.5944 11.9606C18.5824 11.8137 18.5653 11.6687 18.543 11.5254C18.3218 10.0994 17.5571 8.82031 15.9779 7.9481C15.503 7.6845 14.9663 7.51466 14.3593 7.4545C13.7455 7.39258 13.0597 7.44212 12.2898 7.61727C11.9966 7.71988 11.7017 7.79596 11.4051 7.84903C11.1187 7.89857 10.829 7.9251 10.5375 7.93041C10.5152 7.93218 10.4929 7.93218 10.4723 7.93041C10.15 7.93218 9.82765 7.90564 9.50702 7.85257C9.17439 7.79949 8.84347 7.71988 8.51256 7.6155L8.50913 7.61373V7.6155C7.45122 7.27228 6.49961 7.26166 5.67832 7.50227C4.713 7.78534 3.92257 8.41693 3.3516 9.26791C2.84408 10.0233 2.50973 10.9504 2.38285 11.9606H18.5944ZM19.9061 18.4977H17.5039C17.0736 19.2213 16.5283 20.0156 15.9282 20.7038C15.503 21.1904 15.0469 21.6291 14.5771 21.9582H19.9524L18.0715 20.3819C18.0492 20.3659 18.0286 20.3465 18.0114 20.3217C17.9206 20.1979 17.9446 20.0209 18.0646 19.9254L19.9061 18.4977Z" stroke="#020E1A" stroke-width="0.2" mask="url(#path-1-outside-1_1433_10196)"/>
</svg>
