<svg width="21" height="21" viewBox="0 0 21 21" fill="none" xmlns="http://www.w3.org/2000/svg">
<path d="M17.7188 5.25H14.4375V4.59375C14.4375 4.07161 14.2301 3.57085 13.8609 3.20163C13.4917 2.83242 12.9909 2.625 12.4688 2.625H8.53125C8.00911 2.625 7.50835 2.83242 7.13913 3.20163C6.76992 3.57085 6.5625 4.07161 6.5625 4.59375V5.25H3.28125C2.93315 5.25 2.59931 5.38828 2.35317 5.63442C2.10703 5.88056 1.96875 6.2144 1.96875 6.5625V17.0625C1.96875 17.4106 2.10703 17.7444 2.35317 17.9906C2.59931 18.2367 2.93315 18.375 3.28125 18.375H17.7188C18.0668 18.375 18.4007 18.2367 18.6468 17.9906C18.893 17.7444 19.0312 17.4106 19.0312 17.0625V6.5625C19.0312 6.2144 18.893 5.88056 18.6468 5.63442C18.4007 5.38828 18.0668 5.25 17.7188 5.25ZM7.875 4.59375C7.875 4.4197 7.94414 4.25278 8.06721 4.12971C8.19028 4.00664 8.3572 3.9375 8.53125 3.9375H12.4688C12.6428 3.9375 12.8097 4.00664 12.9328 4.12971C13.0559 4.25278 13.125 4.4197 13.125 4.59375V5.25H7.875V4.59375ZM17.7188 17.0625H3.28125V6.5625H17.7188V17.0625ZM13.125 11.8125C13.125 11.9865 13.0559 12.1535 12.9328 12.2765C12.8097 12.3996 12.6428 12.4688 12.4688 12.4688H11.1562V13.7812C11.1562 13.9553 11.0871 14.1222 10.964 14.2453C10.841 14.3684 10.674 14.4375 10.5 14.4375C10.326 14.4375 10.159 14.3684 10.036 14.2453C9.91289 14.1222 9.84375 13.9553 9.84375 13.7812V12.4688H8.53125C8.3572 12.4688 8.19028 12.3996 8.06721 12.2765C7.94414 12.1535 7.875 11.9865 7.875 11.8125C7.875 11.6385 7.94414 11.4715 8.06721 11.3485C8.19028 11.2254 8.3572 11.1562 8.53125 11.1562H9.84375V9.84375C9.84375 9.6697 9.91289 9.50278 10.036 9.37971C10.159 9.25664 10.326 9.1875 10.5 9.1875C10.674 9.1875 10.841 9.25664 10.964 9.37971C11.0871 9.50278 11.1562 9.6697 11.1562 9.84375V11.1562H12.4688C12.6428 11.1562 12.8097 11.2254 12.9328 11.3485C13.0559 11.4715 13.125 11.6385 13.125 11.8125Z" fill="#535E6B"/>
</svg>
