<svg width="23" height="21" viewBox="0 0 23 21" fill="none" xmlns="http://www.w3.org/2000/svg">
<path d="M11.3771 2.82356L11.3939 2.80671C12.6948 1.42534 13.7655 0.291048 15.9518 0.0383588C17.1711 -0.096808 18.4033 0.12698 19.4971 0.682249C20.4167 1.1405 21.2157 1.80862 21.8294 2.63264C22.4498 3.45914 22.8411 4.43474 22.9638 5.46089C23.0591 6.29762 22.9657 7.14509 22.6905 7.94099H21.4962C21.817 7.20089 21.9396 6.39001 21.8519 5.58817C21.7501 4.75778 21.4326 3.96853 20.9309 3.29899C20.4213 2.61772 19.7599 2.06464 18.9992 1.68365C18.0981 1.22675 17.0835 1.04204 16.0791 1.15206C14.299 1.35609 13.3556 2.35749 12.2082 3.57227L11.7926 4.01026C11.689 4.11579 11.5479 4.17616 11.4 4.17826C11.2521 4.18036 11.1093 4.12403 11.0027 4.02149L10.6003 3.62842C9.19264 2.24331 8.1313 1.19511 5.93938 1.17265C5.8514 1.17265 5.76155 1.17265 5.66609 1.17265C4.48779 1.20006 3.35852 1.64975 2.48396 2.43984C2.05142 2.84728 1.70738 3.33939 1.47326 3.88553C1.23914 4.43168 1.11996 5.02017 1.12314 5.61437C1.12314 5.69673 1.12314 5.7847 1.12314 5.87642C1.15402 6.58266 1.29681 7.27951 1.54617 7.94099H0.361297C0.149499 7.28414 0.0279653 6.60156 3.16797e-05 5.91198C3.16797e-05 5.81091 3.16797e-05 5.70609 3.16797e-05 5.59753C-0.00251435 4.85318 0.14843 4.11631 0.44344 3.43291C0.73845 2.74952 1.17119 2.13428 1.71464 1.62562C2.78686 0.648385 4.17639 0.0919312 5.62678 0.0589483C5.72973 0.0589483 5.84017 0.0589483 5.95248 0.0589483C8.59365 0.0926402 9.79162 1.26624 11.3808 2.8273L11.3771 2.82356ZM0.3744 9.66676H5.72599L6.94081 7.70327L9.08407 10.8123L11.2311 6.46416L13.5465 10.9227L14.6434 9.79966H22.6306V10.9227H15.1151L13.2695 12.817L11.2535 8.94426L9.24505 13.0172L6.99884 9.74725L6.35493 10.7898H0.3744V9.66676ZM19.1733 12.8095L19.119 12.8675C18.1831 13.8333 17.1947 14.7823 16.3112 15.6358C15.7909 16.1337 15.3042 16.5998 14.8924 17.0079L11.7926 20.0813C11.6878 20.1831 11.5475 20.24 11.4014 20.24C11.2553 20.24 11.115 20.1831 11.0102 20.0813L8.4439 17.6218C7.97594 17.1726 7.43311 16.6766 6.86781 16.1618C5.73348 15.1267 4.51117 14.013 3.41801 12.8095H4.96041C5.82894 13.6986 6.75176 14.5409 7.62216 15.3326C8.18371 15.838 8.7097 16.3247 9.21884 16.8151L11.3864 18.904L14.0969 16.2142C14.5236 15.7912 15.0084 15.3251 15.5269 14.8291C16.1877 14.1965 16.9046 13.5189 17.6047 12.8095H19.1733Z" fill="#535E6B"/>
</svg>
