<svg width="19" height="19" viewBox="0 0 19 19" fill="none" xmlns="http://www.w3.org/2000/svg">
<path d="M2.375 4.75H3.95833H16.625" stroke="#DC0C0C" stroke-width="1.5" stroke-linecap="round" stroke-linejoin="round"/>
<path d="M15.0417 4.75016V15.8335C15.0417 16.2534 14.8749 16.6562 14.5779 16.9531C14.281 17.25 13.8783 17.4168 13.4583 17.4168H5.54168C5.12175 17.4168 4.71902 17.25 4.42209 16.9531C4.12516 16.6562 3.95834 16.2534 3.95834 15.8335V4.75016M6.33334 4.75016V3.16683C6.33334 2.7469 6.50016 2.34418 6.79709 2.04724C7.09402 1.75031 7.49675 1.5835 7.91668 1.5835H11.0833C11.5033 1.5835 11.906 1.75031 12.2029 2.04724C12.4999 2.34418 12.6667 2.7469 12.6667 3.16683V4.75016" stroke="#DC0C0C" stroke-width="1.5" stroke-linecap="round" stroke-linejoin="round"/>
<path d="M7.91666 8.7085V13.4585" stroke="#DC0C0C" stroke-width="1.5" stroke-linecap="round" stroke-linejoin="round"/>
<path d="M11.0833 8.7085V13.4585" stroke="#DC0C0C" stroke-width="1.5" stroke-linecap="round" stroke-linejoin="round"/>
</svg>
