<svg width="17" height="17" viewBox="0 0 17 17" fill="none" xmlns="http://www.w3.org/2000/svg">
<path d="M7.7094 2.58154H2.49098C2.09555 2.58154 1.71631 2.73863 1.4367 3.01823C1.15708 3.29784 1 3.67707 1 4.0725V14.5092C1 14.9046 1.15708 15.2838 1.4367 15.5635C1.71631 15.8431 2.09555 16.0001 2.49098 16.0001H12.9278C13.3232 16.0001 13.7025 15.8431 13.9821 15.5635C14.2617 15.2838 14.4188 14.9046 14.4188 14.5092V9.29084" stroke="#324665" stroke-width="1.5" stroke-linecap="round" stroke-linejoin="round"/>
<path d="M13.3003 1.46318C13.5969 1.16661 13.9991 1 14.4185 1C14.838 1 15.2402 1.16661 15.5368 1.46318C15.8334 1.75975 16 2.16198 16 2.5814C16 3.00081 15.8334 3.40304 15.5368 3.69961L8.45464 10.7817L5.47269 11.5271L6.21818 8.54522L13.3003 1.46318Z" stroke="#324665" stroke-width="1.5" stroke-linecap="round" stroke-linejoin="round"/>
</svg>
