<svg width="30" height="30" viewBox="0 0 30 30" fill="none" xmlns="http://www.w3.org/2000/svg">
<path d="M22.5 27.4976H7.50001C6.83696 27.4976 6.20107 27.2343 5.73224 26.7654C5.2634 26.2966 5 25.6608 5 24.9976V4.99765C5 4.33461 5.2634 3.69872 5.73224 3.22988C6.20107 2.76105 6.83696 2.49765 7.50001 2.49765H16.375C16.7225 2.48539 17.0687 2.54575 17.3916 2.6749C17.7144 2.80405 18.0068 2.99912 18.25 3.24765L24.375 9.74764C24.8005 10.229 25.0242 10.8557 25 11.4976V24.9976C25 25.6608 24.7367 26.2966 24.2678 26.7654C23.799 27.2343 23.163 27.4976 22.5 27.4976Z" stroke="#47559C" stroke-width="1.71429" stroke-linecap="round" stroke-linejoin="round"/>
<path d="M9.875 21.8711H20.125" stroke="#47559C" stroke-width="1.71429" stroke-linecap="round" stroke-linejoin="round"/>
<path d="M9.875 16.875H20.125" stroke="#47559C" stroke-width="1.71429" stroke-linecap="round" stroke-linejoin="round"/>
<path d="M10 11.8789H16.25" stroke="#47559C" stroke-width="1.71429" stroke-linecap="round" stroke-linejoin="round"/>
</svg>
