<svg width="25" height="29" viewBox="0 0 25 29" fill="none" xmlns="http://www.w3.org/2000/svg">
<path d="M20.1667 9.66667C20.1667 7.63334 19.3589 5.68329 17.9212 4.24551C16.4834 2.80774 14.5333 2 12.5 2C10.4667 2 8.51663 2.80774 7.07885 4.24551C5.64107 5.68329 4.83333 7.63334 4.83333 9.66667C4.83333 18.6111 1 21.1667 1 21.1667H24C24 21.1667 20.1667 18.6111 20.1667 9.66667Z" stroke="#324665" stroke-width="2" stroke-linecap="round" stroke-linejoin="round"/>
<path d="M14.7106 26.2783C14.486 26.6656 14.1635 26.987 13.7756 27.2105C13.3876 27.434 12.9478 27.5516 12.5 27.5516C12.0523 27.5516 11.6125 27.434 11.2245 27.2105C10.8366 26.987 10.5141 26.6656 10.2895 26.2783" stroke="#324665" stroke-width="2" stroke-linecap="round" stroke-linejoin="round"/>
<circle cx="20" cy="5" r="5" fill="#E75A77"/>
</svg>
