<svg width="261" height="261" viewBox="0 0 261 261" fill="none" xmlns="http://www.w3.org/2000/svg">
<path d="M221.797 178.235C221.534 223.007 185.024 259.088 140.251 258.825C95.4795 258.561 59.398 222.052 59.6616 177.28C59.9252 132.506 96.4348 96.4262 141.207 96.6889C185.979 96.9525 222.061 133.461 221.797 178.235Z" fill="#FFC42E"/>
<path d="M181.56 157.716C181.522 164.203 176.232 169.432 169.744 169.393C163.257 169.355 158.03 164.065 158.068 157.578C158.106 151.09 163.396 145.862 169.884 145.901C176.37 145.938 181.598 151.228 181.56 157.716ZM123.625 157.374C123.586 163.861 118.296 169.09 111.809 169.051C105.323 169.013 100.095 163.723 100.133 157.236C100.171 150.748 105.461 145.521 111.948 145.559C118.434 145.597 123.663 150.887 123.625 157.374Z" fill="#37424C"/>
<path d="M95.9658 130.851L92.2168 138.004L98.6157 141.358L102.365 134.204L95.9658 130.851Z" fill="#F7C19B"/>
<path d="M93.3797 135.073C93.0674 134.663 92.5584 134.454 92.0477 134.526L81.2641 136.05C80.3497 136.18 79.5876 136.855 79.5311 137.749C79.5302 137.761 79.5293 137.774 79.5293 137.787C79.491 138.565 80.0139 139.298 80.7404 139.678L96.1498 147.753C96.8136 148.101 97.6166 147.877 97.9437 147.252L98.3518 146.474C99.2122 144.832 99.7612 143.041 99.9708 141.185C100.038 140.589 99.6611 140.023 99.0773 139.782C98.6841 139.62 98.3013 139.447 97.9298 139.263C96.4047 138.505 95.1145 137.352 94.0957 136.011L93.3797 135.073Z" fill="#333333"/>
<path d="M120.493 128.479L112.84 130.047L114.592 138.602L122.246 137.034L120.493 128.479Z" fill="#F7C19B"/>
<path d="M113.582 135.363C113.04 135.233 112.47 135.406 112.092 135.815L104.102 144.468C103.424 145.201 103.247 146.288 103.812 147.077C103.82 147.088 103.828 147.098 103.835 147.11C104.336 147.788 105.275 148.044 106.144 147.867L124.574 144.092C125.367 143.929 125.886 143.192 125.733 142.445L125.543 141.514C125.14 139.549 124.374 137.675 123.281 135.975C122.93 135.431 122.227 135.214 121.574 135.412C121.134 135.545 120.694 135.661 120.258 135.761C118.462 136.17 116.592 136.085 114.822 135.661L113.582 135.363ZM147.535 79.6204L107.094 111.427L102.604 95.8772C102.021 93.8562 103.045 91.7203 104.991 90.9138L139.87 76.4492L147.535 79.6204Z" fill="#333333"/>
<path d="M111.147 125.488L102.338 136.923L93.582 132.374L107.088 111.426L111.147 125.488Z" fill="#333333"/>
<path d="M166.255 79.6237C165.671 91.0146 160.074 99.311 147.908 103.562C143.408 105.134 138.917 106.73 134.5 108.523L119.439 114.634L122.571 131.6L112.536 132.417L107.094 111.43L147.536 79.6237L148.255 79.9178L150.675 77.668L166.255 79.6237Z" fill="#333333"/>
<path d="M132.869 58.9094C130.595 61.7056 116.968 67.4128 113.374 69.3093C112.971 69.5216 112.68 69.6582 112.198 69.9975C109.432 71.9463 105.798 71.654 103.706 70.3655C103.473 70.2229 103.408 69.9401 103.655 69.8253L108.87 67.3971L106.062 66.1713C105.852 66.0799 105.712 65.8781 105.699 65.6501C105.677 65.2786 105.992 64.9759 106.362 65.0116L109.592 65.3195C110.698 65.4248 111.803 65.1099 112.687 64.4365L126.027 53.9678L133.756 36.5391L141.805 40.8821L132.869 58.9094Z" fill="#F7C19B"/>
<path d="M169.204 39.4974L170.351 47.2195C170.369 47.3456 170.335 47.5074 170.215 47.5509C166.572 48.8786 167.97 53.1224 163.032 51.8801L166.699 79.1528C156.153 80.7475 145.863 80.5196 135.914 77.8452L137.434 48.3305C132.943 48.2957 131.75 46.801 129.699 42.1761C132.388 36.9752 135.062 32.105 137.622 29.6246C139.488 27.7802 142.863 26.8241 145.383 26.1098C152.461 24.1036 160.875 26.5265 165.711 31.911C167.609 34.0242 168.787 36.6873 169.204 39.4974Z" fill="#FA5669"/>
<path d="M162.795 48.6804L163.707 60.7543C163.779 61.7026 163.625 62.6527 163.252 63.527C162.104 66.2223 159.717 72.8908 156.535 78.3135C156.256 78.7894 155.842 79.1713 155.353 79.428L150.319 82.0658C149.987 82.2807 149.894 82.7244 150.112 83.0542C150.287 83.3221 150.621 83.4387 150.925 83.3404L153.411 82.5339C153.747 82.4251 154.077 82.7375 153.971 83.0742C153.692 83.9511 152.736 85.4284 149.538 86.6194C149.13 86.7717 148.984 87.2684 149.236 87.6243C149.736 88.3272 150.84 89.1372 153.142 88.2794C155.749 87.3067 157.702 85.1691 159.354 83.0115C161.382 80.3624 162.959 77.4096 164.771 74.6169C165.845 72.9622 166.92 71.3074 167.994 69.6527C168.734 68.5121 169.474 67.3715 170.215 66.231C170.93 65.1295 171.261 63.8228 171.156 62.5143L169.967 47.6051L162.795 48.6804ZM146.493 24.531C146.673 24.4344 146.892 24.5623 146.894 24.7668L146.948 28.473C146.948 28.667 146.944 28.8166 147.072 28.9071C147.422 29.1368 147.768 29.2942 148.118 29.3899C149.632 29.8145 151.127 29.1037 152.302 28.2033C153.513 27.2845 154.375 26.1692 154.559 25.8725C154.593 25.8212 154.597 25.7594 154.581 25.7029L152.73 20.4289C152.703 20.3454 152.718 20.2549 152.77 20.1836C155.186 16.728 153.145 12.1109 153.145 12.1109C148.079 2.24768 141.122 6.70643 138.028 9.46694C136.996 10.3891 136.496 11.775 136.695 13.1444C138.815 27.6847 144.9 25.4097 146.493 24.531Z" fill="#F7C19B"/>
<path d="M148.456 14.1712L149.114 17.4946C149.191 17.88 148.85 18.2175 148.466 18.1401C148.271 18.1001 148.112 17.9574 148.052 17.7669L147.296 15.3744C147.129 14.8463 146.689 14.4539 146.149 14.333C145.118 14.1016 143.483 13.4491 143.139 11.6177C143.065 11.2227 142.67 10.9739 142.284 11.0818C140.94 11.4585 138.218 12.0658 136.776 11.2976C136.51 11.1566 136.233 11.0383 135.947 10.9469C135.146 10.6912 133.662 9.97516 133.809 8.2108C133.833 7.91935 134.049 7.67749 134.336 7.62007L136.761 7.1407C136.929 7.10677 137.045 6.95278 137.031 6.78139L136.851 4.65772C136.832 4.42804 137.043 4.24708 137.266 4.30189L140.224 5.01877C140.868 5.1745 141.542 4.95526 141.972 4.4524C142.867 3.40927 144.832 1.82239 148.294 2.24608C151.375 2.62279 153.69 5.13535 155.03 7.04239C155.909 8.29345 156.181 9.87163 155.789 11.3489L154.868 14.8097C154.834 14.9376 154.81 15.0681 154.795 15.1995C154.683 16.1939 154.623 20.6005 152.773 20.3142C152.723 20.3064 152.683 20.2655 152.673 20.2151L151.704 18.2654C151.607 17.7765 151.654 17.2692 151.842 16.8073C152.35 15.564 153.136 12.9636 151.018 12.6234C150.311 12.5095 149.581 12.6965 149.017 13.135C148.671 13.403 148.375 13.7614 148.456 14.1712Z" fill="#37424C"/>
<path d="M48.5867 43.1316C48.5867 43.8859 48.4449 44.5488 48.1639 45.1186C47.8838 45.6894 47.5018 46.1644 47.0207 46.5463C46.5396 46.9282 45.9759 47.2145 45.3321 47.4076C44.6874 47.5999 43.9992 47.6956 43.2667 47.6956C42.7699 47.6956 42.3088 47.6547 41.8834 47.5747C41.458 47.4929 41.0821 47.3937 40.7567 47.2806C40.4305 47.1658 40.1582 47.044 39.9407 46.9195C39.7223 46.7934 39.564 46.682 39.4683 46.5863C39.3726 46.4906 39.303 46.3514 39.2621 46.1696C39.2221 45.9887 39.2012 45.7276 39.2012 45.3866C39.2012 45.1578 39.209 44.9647 39.2238 44.8098C39.2377 44.6541 39.2621 44.5279 39.296 44.4322C39.3291 44.3365 39.3734 44.2678 39.4282 44.2278C39.4839 44.186 39.5483 44.166 39.6231 44.166C39.7267 44.166 39.8728 44.2278 40.0616 44.3496C40.2513 44.4722 40.494 44.6071 40.7889 44.755C41.0856 44.9038 41.4397 45.0377 41.8503 45.1604C42.261 45.2831 42.7369 45.344 43.278 45.344C43.633 45.344 43.9514 45.3022 44.2333 45.2161C44.5151 45.1317 44.7535 45.0099 44.9493 44.855C45.145 44.6993 45.2955 44.5079 45.3991 44.2782C45.5026 44.0494 45.5548 43.7928 45.5548 43.5118C45.5548 43.1872 45.466 42.9062 45.2886 42.6739C45.112 42.4399 44.8797 42.2329 44.5952 42.051C44.3098 41.8701 43.9853 41.6995 43.6225 41.5403C43.2597 41.3811 42.8856 41.2115 42.5011 41.0349C42.1157 40.8565 41.7416 40.6547 41.3797 40.4293C41.0169 40.2032 40.6924 39.9326 40.4079 39.6185C40.1225 39.3036 39.8911 38.9312 39.7127 38.5014C39.5361 38.0717 39.4465 37.5575 39.4465 36.9581C39.4465 36.2699 39.5744 35.6644 39.8302 35.1415C40.0851 34.6195 40.4287 34.1862 40.862 33.8426C41.2953 33.4981 41.8068 33.2397 42.3958 33.0709C42.9848 32.9004 43.6086 32.8142 44.2663 32.8142C44.6074 32.8142 44.9484 32.8412 45.2886 32.8925C45.6296 32.9439 45.948 33.0152 46.2438 33.1031C46.5405 33.1918 46.8032 33.291 47.0329 33.4024C47.2617 33.5137 47.4131 33.6068 47.4879 33.6799C47.5627 33.7547 47.6115 33.8174 47.6384 33.8696C47.6637 33.9209 47.6863 33.9896 47.7054 34.074C47.7228 34.1601 47.7359 34.2671 47.7437 34.3959C47.7515 34.5264 47.755 34.6865 47.755 34.8796C47.755 35.0945 47.7498 35.2746 47.7385 35.4242C47.7272 35.5721 47.708 35.6948 47.6828 35.7905C47.6567 35.8862 47.6193 35.9576 47.5714 36.0011C47.5236 36.0454 47.4592 36.0663 47.3766 36.0663C47.2957 36.0663 47.166 36.0158 46.9877 35.9106C46.8111 35.807 46.5927 35.6948 46.3334 35.5721C46.0733 35.4512 45.774 35.3399 45.4339 35.2389C45.0928 35.1389 44.7187 35.0902 44.3107 35.0902C43.9923 35.0902 43.7156 35.1293 43.4781 35.2067C43.2406 35.285 43.0431 35.392 42.8848 35.5286C42.7255 35.6661 42.6072 35.8305 42.5289 36.0228C42.4515 36.2159 42.4123 36.4195 42.4123 36.6344C42.4123 36.9528 42.4993 37.2277 42.6742 37.4618C42.8473 37.6958 43.0814 37.9029 43.3737 38.083C43.6651 38.2648 43.9966 38.4353 44.3664 38.5945C44.7361 38.7537 45.1146 38.9216 45.4991 39.1C45.8845 39.2783 46.2621 39.4793 46.6318 39.7046C47.0016 39.9308 47.3313 40.2014 47.621 40.5155C47.909 40.8304 48.143 41.2002 48.3205 41.6256C48.4971 42.051 48.5867 42.553 48.5867 43.1316ZM63.7474 40.0874C63.7474 41.2802 63.5995 42.346 63.3028 43.2873C63.007 44.2269 62.5659 45.0256 61.9813 45.6798C61.3966 46.3358 60.6728 46.836 59.8097 47.1797C58.9467 47.5242 57.9505 47.6965 56.8169 47.6965C55.699 47.6965 54.7228 47.5494 53.8903 47.258C53.0568 46.9648 52.3634 46.5193 51.8075 45.919C51.2533 45.3205 50.8357 44.5575 50.5582 43.6309C50.2806 42.7061 50.1414 41.6099 50.1414 40.3441C50.1414 39.1809 50.2902 38.1343 50.586 37.206C50.8818 36.276 51.3229 35.4851 51.9075 34.8352C52.4922 34.1836 53.216 33.6834 54.079 33.3354C54.9421 32.9865 55.9435 32.8125 57.084 32.8125C58.1715 32.8125 59.1329 32.9578 59.9655 33.2458C60.7989 33.5346 61.4949 33.98 62.0535 34.5786C62.6129 35.1789 63.0348 35.9367 63.3202 36.8502C63.6047 37.7637 63.7474 38.8442 63.7474 40.0874ZM60.6815 40.2423C60.6815 39.488 60.6223 38.8007 60.5049 38.1821C60.3865 37.5644 60.1838 37.0355 59.8993 36.5944C59.614 36.1533 59.2338 35.814 58.7596 35.5721C58.2855 35.332 57.6939 35.2111 56.9831 35.2111C56.2645 35.2111 55.6642 35.3459 55.1831 35.6165C54.702 35.8871 54.3131 36.2481 54.0173 36.7005C53.7206 37.1512 53.5118 37.6793 53.3891 38.2831C53.2665 38.886 53.2064 39.5245 53.2064 40.1979C53.2064 40.9835 53.2656 41.6882 53.3848 42.3138C53.5022 42.9402 53.7032 43.4743 53.9851 43.9189C54.2652 44.3626 54.6437 44.7019 55.117 44.9342C55.5911 45.1682 56.1871 45.284 56.9057 45.284C57.6243 45.284 58.2229 45.1517 58.7048 44.8846C59.1859 44.6184 59.5748 44.2556 59.8724 43.7954C60.1682 43.3369 60.3778 42.801 60.4988 42.1911C60.6206 41.5812 60.6815 40.9322 60.6815 40.2423ZM76.8661 47.0631C76.8661 47.1449 76.8513 47.2136 76.8208 47.2693C76.7921 47.325 76.7208 47.3702 76.6103 47.4085C76.4989 47.445 76.3363 47.4703 76.1214 47.4859C75.9065 47.5007 75.615 47.5085 75.2444 47.5085C74.9338 47.5085 74.685 47.5007 74.5006 47.4859C74.3152 47.4711 74.1682 47.4433 74.0612 47.4024C73.9542 47.3624 73.8776 47.3102 73.8341 47.2467C73.7898 47.1832 73.7532 47.1075 73.7228 47.0196L72.4343 43.8093C72.2786 43.4465 72.1272 43.1246 71.9793 42.8427C71.8314 42.5608 71.6661 42.3259 71.4851 42.138C71.3033 41.9484 71.0936 41.8057 70.857 41.71C70.6195 41.6143 70.3454 41.5664 70.0348 41.5664H69.124V47.0413C69.124 47.1162 69.0996 47.1832 69.0517 47.2423C69.0039 47.3015 68.9239 47.3493 68.8134 47.3859C68.702 47.4224 68.5541 47.4529 68.3688 47.4746C68.1844 47.4972 67.9468 47.5085 67.6589 47.5085C67.377 47.5085 67.1421 47.4972 66.9524 47.4746C66.7645 47.4529 66.614 47.4224 66.5026 47.3859C66.3913 47.3493 66.3147 47.3015 66.2686 47.2423C66.2242 47.1832 66.2034 47.1162 66.2034 47.0413V33.9896C66.2034 33.6634 66.2869 33.4285 66.4531 33.2849C66.6184 33.1414 66.8245 33.0692 67.0699 33.0692H70.79C71.1676 33.0692 71.4782 33.0752 71.7235 33.0909C71.9671 33.1057 72.1898 33.124 72.3891 33.1466C72.9667 33.2284 73.487 33.3693 73.949 33.5685C74.4127 33.7678 74.8051 34.0296 75.1261 34.3515C75.448 34.6734 75.6942 35.0554 75.8647 35.4956C76.0352 35.9367 76.1196 36.4421 76.1196 37.0111C76.1196 37.4922 76.0587 37.9307 75.9369 38.3274C75.816 38.7224 75.635 39.0765 75.3984 39.3871C75.1609 39.6994 74.8694 39.9691 74.5206 40.1979C74.1734 40.4276 73.7767 40.6138 73.333 40.7539C73.5462 40.8574 73.7489 40.9835 73.9377 41.1314C74.1256 41.2793 74.3039 41.4586 74.471 41.67C74.638 41.8805 74.7946 42.1224 74.9425 42.3929C75.0913 42.6635 75.2357 42.9689 75.3758 43.309L76.5868 46.1409C76.6982 46.4228 76.7713 46.6281 76.8095 46.7577C76.8469 46.8874 76.8661 46.9891 76.8661 47.0631ZM73.0999 37.3104C73.0999 36.8371 72.9928 36.4378 72.778 36.1115C72.5631 35.7853 72.2107 35.5556 71.7235 35.4234C71.5747 35.3851 71.4068 35.3564 71.218 35.3338C71.0284 35.312 70.7674 35.3007 70.435 35.3007H69.124V39.3775H70.6117C71.0275 39.3775 71.3894 39.3271 71.7009 39.227C72.0115 39.127 72.2707 38.9869 72.4778 38.8051C72.6866 38.6232 72.8415 38.4075 72.945 38.1543C73.0485 37.9029 73.0999 37.621 73.0999 37.3104ZM89.6716 47.0631C89.6716 47.1449 89.6568 47.2136 89.6264 47.2693C89.5977 47.325 89.5263 47.3702 89.4158 47.4085C89.3045 47.445 89.1418 47.4703 88.9269 47.4859C88.712 47.5007 88.4206 47.5085 88.0499 47.5085C87.7393 47.5085 87.4905 47.5007 87.3061 47.4859C87.1208 47.4711 86.9737 47.4433 86.8667 47.4024C86.7597 47.3624 86.6832 47.3102 86.6397 47.2467C86.5953 47.1832 86.5588 47.1075 86.5283 47.0196L85.2398 43.8093C85.0841 43.4465 84.9327 43.1246 84.7848 42.8427C84.6369 42.5608 84.4716 42.3259 84.2907 42.138C84.1088 41.9484 83.8992 41.8057 83.6625 41.71C83.425 41.6143 83.151 41.5664 82.8404 41.5664H81.9295V47.0413C81.9295 47.1162 81.9051 47.1832 81.8573 47.2423C81.8094 47.3015 81.7294 47.3493 81.6189 47.3859C81.5075 47.4224 81.3596 47.4529 81.1743 47.4746C80.9899 47.4972 80.7524 47.5085 80.4644 47.5085C80.1825 47.5085 79.9476 47.4972 79.758 47.4746C79.57 47.4529 79.4195 47.4224 79.3082 47.3859C79.1968 47.3493 79.1203 47.3015 79.0741 47.2423C79.0298 47.1832 79.0089 47.1162 79.0089 47.0413V33.9896C79.0089 33.6634 79.0924 33.4285 79.2595 33.2849C79.4248 33.1414 79.6309 33.0692 79.8763 33.0692H83.5964C83.974 33.0692 84.2846 33.0752 84.5299 33.0909C84.7735 33.1057 84.9962 33.124 85.1955 33.1466C85.7731 33.2284 86.2934 33.3693 86.7554 33.5685C87.2191 33.7678 87.6115 34.0296 87.9325 34.3515C88.2544 34.6734 88.5006 35.0554 88.6711 35.4956C88.8416 35.9367 88.926 36.4421 88.926 37.0111C88.926 37.4922 88.8651 37.9307 88.7425 38.3274C88.6215 38.7224 88.4406 39.0765 88.2039 39.3871C87.9664 39.6994 87.675 39.9691 87.3261 40.1979C86.979 40.4276 86.5822 40.6138 86.1385 40.7539C86.3517 40.8574 86.5544 40.9835 86.7441 41.1314C86.932 41.2793 87.1103 41.4586 87.2774 41.67C87.4444 41.8814 87.601 42.1224 87.7489 42.3929C87.8977 42.6635 88.0421 42.9689 88.1822 43.309L89.3932 46.1409C89.5046 46.4228 89.5777 46.6281 89.6159 46.7577C89.6525 46.8874 89.6716 46.9891 89.6716 47.0631ZM85.9054 37.3104C85.9054 36.8371 85.7984 36.4378 85.5835 36.1115C85.3686 35.7853 85.0162 35.5556 84.529 35.4234C84.3803 35.3851 84.2124 35.3564 84.0236 35.3338C83.8339 35.312 83.5729 35.3007 83.2406 35.3007H81.9295V39.3775H83.4172C83.833 39.3775 84.195 39.3271 84.5064 39.227C84.817 39.127 85.0763 38.9869 85.2833 38.8051C85.4921 38.6232 85.647 38.4075 85.7505 38.1543C85.8541 37.9029 85.9054 37.621 85.9054 37.3104ZM97.2015 41.9866V47.0396C97.2015 47.1144 97.1771 47.1814 97.1293 47.2406C97.0814 47.2997 97.0014 47.3476 96.8909 47.3841C96.7795 47.4207 96.629 47.4511 96.4411 47.4729C96.2514 47.4955 96.0165 47.5068 95.7364 47.5068C95.4467 47.5068 95.21 47.4955 95.0256 47.4729C94.8403 47.4511 94.6906 47.4207 94.5758 47.3841C94.461 47.3476 94.3809 47.2997 94.3374 47.2406C94.2931 47.1814 94.2704 47.1144 94.2704 47.0396V41.9866L90.338 34.1558C90.198 33.8817 90.1066 33.6695 90.0666 33.5181C90.0266 33.3667 90.0475 33.2519 90.1336 33.1736C90.218 33.0961 90.3763 33.0474 90.6051 33.03C90.8348 33.0109 91.1532 33.0022 91.5613 33.0022C91.9014 33.0022 92.1737 33.01 92.3773 33.0239C92.5809 33.0387 92.7427 33.0665 92.8602 33.1074C92.9785 33.1492 93.0664 33.2023 93.122 33.2692C93.1777 33.3362 93.2308 33.4206 93.2821 33.5242L94.8829 37.0564C95.0386 37.3974 95.1909 37.7558 95.3432 38.1343C95.4963 38.5119 95.6485 38.9077 95.8042 39.3227H95.8269C95.9669 38.9225 96.1122 38.5336 96.2601 38.1552C96.408 37.7785 96.5516 37.4183 96.6934 37.079L98.2698 33.5685C98.3081 33.4502 98.3533 33.3563 98.409 33.2858C98.4647 33.2153 98.5482 33.1579 98.6596 33.1144C98.771 33.07 98.9223 33.0396 99.1155 33.0248C99.3077 33.0109 99.5626 33.003 99.8811 33.003C100.303 33.003 100.631 33.0117 100.864 33.0309C101.098 33.0483 101.257 33.0979 101.342 33.1744C101.428 33.2527 101.448 33.3693 101.404 33.5242C101.359 33.6799 101.27 33.8904 101.137 34.1567L97.2015 41.9866ZM103.777 45.8407C103.777 46.5289 103.657 46.9918 103.417 47.2293C103.176 47.4659 102.744 47.5842 102.122 47.5842C101.501 47.5842 101.071 47.4676 100.834 47.2345C100.597 47.0022 100.479 46.5602 100.479 45.9077C100.479 45.2117 100.599 44.7445 100.84 44.5079C101.08 44.2704 101.516 44.1521 102.145 44.1521C102.759 44.1521 103.184 44.2695 103.422 44.5018C103.659 44.7358 103.777 45.1813 103.777 45.8407ZM109.852 45.8407C109.852 46.5289 109.732 46.9918 109.492 47.2293C109.251 47.4659 108.82 47.5842 108.197 47.5842C107.576 47.5842 107.146 47.4676 106.909 47.2345C106.672 47.0022 106.554 46.5602 106.554 45.9077C106.554 45.2117 106.674 44.7445 106.915 44.5079C107.155 44.2704 107.591 44.1521 108.22 44.1521C108.834 44.1521 109.26 44.2695 109.497 44.5018C109.734 44.7358 109.852 45.1813 109.852 45.8407Z" fill="#37424C"/>
<path d="M187.855 219.798C156.185 212.782 124.515 212.782 92.845 219.798C92.1264 219.798 91.6296 219.085 91.8732 218.409C99.1386 198.212 118.554 184.836 140.651 184.966C162.538 185.095 181.64 198.446 188.828 218.409C189.07 219.085 188.573 219.798 187.855 219.798Z" fill="#37424C"/>
</svg>
