<svg width="276" height="296" viewBox="0 0 276 296" fill="none" xmlns="http://www.w3.org/2000/svg">
<path d="M275.201 157.916C275.201 81.9216 213.595 20.3164 137.601 20.3164C61.6056 20.3164 0 81.9226 0 157.917C0 233.911 61.6056 295.517 137.601 295.517C213.595 295.517 275.201 233.911 275.201 157.916Z" fill="#DDE2FA"/>
<path d="M188.469 84.6876C206.465 84.6876 221.054 70.0987 221.054 52.1022C221.054 34.1056 206.465 19.5166 188.469 19.5166C170.473 19.5166 155.883 34.1056 155.883 52.1022C155.883 70.0987 170.473 84.6876 188.469 84.6876Z" fill="white"/>
<path d="M260.993 0.801758H142.239C140.65 0.801758 139.127 1.43296 138.003 2.55656C136.88 3.68006 136.248 5.20406 136.248 6.79296V96.6056C136.248 97.3916 136.403 98.1716 136.704 98.8986C137.005 99.6256 137.447 100.287 138.003 100.843C138.559 101.399 139.219 101.841 139.946 102.142C140.674 102.443 141.453 102.598 142.24 102.598H153.702L144.494 125.934C144.413 126.14 144.404 126.368 144.469 126.581C144.535 126.792 144.671 126.976 144.854 127.1C145.038 127.224 145.259 127.283 145.48 127.265C145.702 127.247 145.91 127.154 146.072 127.001L171.927 102.598H260.993C262.582 102.598 264.106 101.967 265.229 100.844C266.353 99.7196 266.984 98.1956 266.984 96.6066V6.79296C266.984 5.20406 266.353 3.68016 265.23 2.55666C264.106 1.43306 262.582 0.801858 260.993 0.801758Z" fill="white"/>
<path d="M145.408 128.078C145.05 128.076 144.7 127.967 144.405 127.763C144.066 127.541 143.815 127.207 143.695 126.819C143.575 126.432 143.594 126.014 143.748 125.639L152.524 103.4H142.24C140.439 103.398 138.712 102.682 137.439 101.408C136.165 100.134 135.449 98.4076 135.447 96.6066V6.7929C135.449 4.9919 136.165 3.2653 137.439 1.9917C138.712 0.718301 140.439 0.0019 142.24 0H260.993C262.795 0.0019 264.521 0.718301 265.795 1.9917C267.068 3.2653 267.785 4.9919 267.787 6.7929V96.6056C267.785 98.4056 267.068 100.133 265.795 101.406C264.521 102.68 262.795 103.396 260.993 103.398H172.245L146.622 127.584C146.296 127.898 145.861 128.075 145.408 128.078ZM142.24 1.6037C140.864 1.6052 139.545 2.1524 138.572 3.1253C137.599 4.0981 137.052 5.4172 137.05 6.7931V96.6056C137.051 97.9816 137.598 99.3006 138.571 100.275C139.544 101.248 140.863 101.795 142.24 101.797H153.702C153.833 101.796 153.961 101.829 154.077 101.889C154.193 101.95 154.291 102.039 154.365 102.147C154.439 102.255 154.484 102.38 154.499 102.509C154.514 102.64 154.496 102.771 154.448 102.892L145.24 126.228C145.226 126.265 145.224 126.305 145.236 126.343C145.247 126.381 145.272 126.413 145.304 126.435C145.337 126.458 145.376 126.468 145.415 126.465C145.454 126.462 145.492 126.446 145.521 126.419L171.376 102.015C171.525 101.875 171.722 101.797 171.927 101.797H260.993C262.368 101.795 263.687 101.248 264.66 100.275C265.634 99.3016 266.181 97.9826 266.183 96.6066V6.7929C266.181 5.417 265.634 4.0979 264.66 3.1251C263.687 2.1522 262.368 1.605 260.993 1.6035L142.24 1.6037Z" fill="#090817"/>
<path d="M200.738 89.3186C178.917 89.3186 161.164 71.565 161.164 49.7435C161.164 27.9224 178.917 10.1689 200.738 10.1689C222.56 10.1689 240.313 27.922 240.313 49.7435C240.313 71.565 222.56 89.3186 200.738 89.3186ZM200.738 13.3757C180.685 13.3757 164.371 29.6906 164.371 49.7435C164.371 69.7967 180.686 86.1105 200.738 86.1105C220.791 86.1105 237.106 69.7961 237.106 49.7435C237.106 29.691 220.791 13.3757 200.738 13.3757Z" fill="#090817"/>
<path d="M200.737 52.6558C208.872 52.6558 215.465 46.0617 215.465 37.9279C215.465 29.794 208.872 23.2002 200.737 23.2002C192.604 23.2002 186.01 29.794 186.01 37.9279C186.01 46.0617 192.604 52.6558 200.737 52.6558Z" fill="#080717"/>
<path d="M219.37 65.6853C219.37 60.743 217.408 56.0037 213.913 52.5095C210.418 49.0146 205.679 47.0518 200.737 47.0518C195.795 47.0518 191.056 49.0146 187.562 52.5095C184.068 56.0037 182.104 60.743 182.104 65.6853V76.2852H219.37V65.6853Z" fill="#080717"/>
<path d="M233.722 69.0492C233.41 69.0492 233.102 68.9751 232.823 68.8342L166.21 35.2946C165.972 35.1779 165.76 35.0151 165.586 34.8158C165.411 34.6165 165.278 34.3846 165.194 34.1335C165.109 33.8824 165.076 33.6171 165.094 33.3529C165.113 33.0887 165.184 32.8308 165.303 32.5943C165.422 32.3577 165.587 32.1471 165.788 31.9746C165.989 31.802 166.222 31.6711 166.474 31.5893C166.726 31.5074 166.992 31.4763 167.256 31.4978C167.52 31.5193 167.777 31.5929 168.012 31.7143L234.626 65.2546C235.029 65.4571 235.352 65.7898 235.542 66.1993C235.733 66.6081 235.78 67.0692 235.675 67.5085C235.571 67.9478 235.322 68.3387 234.967 68.6179C234.613 68.8977 234.175 69.0499 233.724 69.0492H233.722Z" fill="#6556FF"/>
<path d="M115.85 186.992C136.497 174.48 143.091 147.6 130.579 126.953C118.067 106.307 91.1866 99.7118 70.5396 112.224C49.8932 124.736 43.299 151.616 55.8106 172.263C68.3226 192.91 95.2036 199.504 115.85 186.992Z" fill="white"/>
<path d="M143.858 184.266L136.994 192.616C134.528 195.614 134.96 200.044 137.958 202.51L187.69 243.4C190.689 245.866 195.118 245.434 197.584 242.435L204.449 234.085C206.915 231.086 206.483 226.656 203.484 224.191L153.753 183.301C150.754 180.835 146.324 181.267 143.858 184.266Z" fill="white"/>
<path d="M112.933 182.174C130.92 171.274 136.665 147.857 125.765 129.87C114.864 111.884 91.4466 106.139 73.4606 117.039C55.4746 127.939 49.7296 151.356 60.6286 169.343C71.5296 187.33 94.9467 193.074 112.933 182.174Z" fill="white"/>
<path d="M121.796 165.919L114.728 174.515L143.875 198.48L150.943 189.884L121.796 165.919Z" fill="#080717"/>
<path d="M196.39 244.941C194.943 245.817 193.261 246.222 191.575 246.102C189.889 245.981 188.281 245.341 186.974 244.269L137.242 203.38C135.573 202.004 134.518 200.022 134.307 197.87C134.098 195.717 134.751 193.568 136.123 191.897L142.988 183.547C143.668 182.719 144.505 182.033 145.45 181.529C146.396 181.025 147.431 180.712 148.497 180.608C149.564 180.504 150.64 180.612 151.665 180.923C152.69 181.235 153.644 181.746 154.471 182.427L204.203 223.318C205.031 223.998 205.717 224.835 206.221 225.78C206.725 226.725 207.038 227.761 207.142 228.827C207.246 229.893 207.139 230.97 206.827 231.995C206.514 233.02 206.004 233.973 205.322 234.801L198.458 243.151C197.875 243.86 197.175 244.465 196.39 244.941ZM146.225 183.684C145.657 184.028 145.152 184.467 144.731 184.98L137.866 193.33C136.874 194.54 136.402 196.093 136.554 197.651C136.706 199.207 137.469 200.641 138.676 201.636L188.409 242.526C189.618 243.519 191.172 243.991 192.729 243.839C194.286 243.687 195.719 242.923 196.714 241.716L203.579 233.366C204.573 232.157 205.046 230.603 204.894 229.045C204.742 227.487 203.977 226.055 202.769 225.06L153.037 184.169C152.092 183.394 150.929 182.931 149.708 182.844C148.488 182.757 147.272 183.051 146.225 183.684Z" fill="#090817"/>
<path d="M116.473 187.937C100.645 197.53 79.8066 196.648 64.7176 184.243C60.1696 180.503 56.4016 175.904 53.6306 170.709C50.8595 165.513 49.1395 159.822 48.5673 153.961C47.9957 148.1 48.5838 142.184 50.2985 136.551C52.0132 130.917 54.8206 125.676 58.5606 121.128C74.2636 102.028 102.577 99.2657 121.676 114.969C127.207 119.519 131.569 125.328 134.395 131.909C137.222 138.49 138.43 145.653 137.921 152.797C137.412 159.941 135.199 166.86 131.467 172.974C127.736 179.087 122.594 184.218 116.473 187.937ZM71.0926 113.205C65.2786 116.736 60.3946 121.609 56.8506 127.414C53.3066 133.221 51.2042 139.791 50.7206 146.576C50.237 153.361 51.3854 160.163 54.0696 166.413C56.7546 172.663 60.8976 178.179 66.1516 182.5C84.2886 197.412 111.178 194.788 126.091 176.652C141.003 158.516 138.379 131.627 120.243 116.713C105.915 104.933 86.1236 104.096 71.0926 113.205Z" fill="#090817"/>
<path d="M113.502 183.171C106.551 187.362 98.4726 189.298 90.3766 188.711C82.2806 188.124 74.5656 185.043 68.2926 179.893C51.5911 166.161 49.1765 141.405 62.9076 124.705C66.1776 120.728 70.1996 117.433 74.7426 115.01C79.2856 112.587 84.2616 111.082 89.3866 110.582C94.5106 110.082 99.6846 110.597 104.61 112.096C109.536 113.595 114.119 116.05 118.096 119.32C134.797 133.051 137.212 157.808 123.482 174.508C120.669 177.939 117.294 180.868 113.502 183.171ZM74.0566 117.973C70.4836 120.143 67.3026 122.904 64.6516 126.138C51.7115 141.876 53.9876 165.209 69.7256 178.149C77.2956 184.374 87.0286 187.335 96.7826 186.384C106.537 185.432 115.514 180.645 121.738 173.075C134.678 157.336 132.402 134.003 116.663 121.063C110.751 116.21 103.481 113.307 95.8506 112.753C88.2216 112.2 80.6086 114.024 74.0566 117.973Z" fill="#090817"/>
<path d="M201.309 194.811C201.309 194.811 173.665 186.967 165.068 187.488C156.47 188.009 139.385 202.119 139.911 206.466C140.435 210.813 147.673 212.971 147.673 212.971C147.673 212.971 147.985 220.141 155.443 219.507C155.443 219.507 154.839 226.825 163.142 225.679C163.142 225.679 164.615 232.867 172.779 231.138C180.943 229.409 190.885 219.499 196.949 220.731C203.012 221.964 204.602 225.294 204.602 225.294" fill="white"/>
<path d="M205.189 226.258C205.157 226.278 205.124 226.295 205.089 226.312C204.955 226.376 204.811 226.413 204.662 226.421C204.514 226.428 204.366 226.407 204.226 226.357C204.087 226.308 203.959 226.231 203.848 226.132C203.738 226.033 203.648 225.913 203.585 225.779C203.532 225.674 202.08 222.924 196.726 221.836C193.801 221.241 189.256 223.972 184.861 226.614C180.92 228.981 176.846 231.429 173.015 232.241C170.121 232.855 167.651 232.509 165.674 231.214C164.136 230.162 162.969 228.652 162.34 226.898C159.805 227.077 157.806 226.493 156.39 225.152C154.919 223.759 154.476 221.895 154.353 220.674C152.314 220.641 150.611 220.033 149.276 218.86C147.44 217.246 146.835 214.996 146.64 213.813C144.666 213.098 139.297 210.783 138.792 206.602C138.63 205.26 139.461 203.515 141.334 201.27C146.044 195.621 157.886 186.792 165.002 186.362C173.693 185.834 200.484 193.403 201.621 193.725C201.908 193.807 202.152 194.001 202.298 194.262C202.444 194.523 202.479 194.832 202.397 195.12C202.316 195.408 202.123 195.652 201.861 195.797C201.6 195.943 201.291 195.979 201.003 195.897C200.729 195.819 173.448 188.11 165.139 188.615C159.288 188.97 148.111 196.665 143.069 202.716C141.476 204.625 140.978 205.857 141.036 206.332C141.393 209.294 146.183 211.347 148 211.889C148.224 211.956 148.422 212.092 148.567 212.277C148.711 212.461 148.794 212.687 148.804 212.921C148.805 212.943 148.961 215.588 150.781 217.176C151.888 218.14 153.426 218.545 155.353 218.382C155.517 218.368 155.681 218.389 155.836 218.446C155.99 218.502 156.13 218.591 156.246 218.707C156.362 218.823 156.452 218.963 156.508 219.117C156.565 219.271 156.587 219.435 156.574 219.599C156.572 219.619 156.411 222.074 157.956 223.523C159.025 224.525 160.718 224.875 162.994 224.561C163.278 224.522 163.566 224.592 163.8 224.757C164.034 224.923 164.196 225.172 164.254 225.452C164.305 225.695 165.632 231.499 172.551 230.034C176.012 229.301 179.922 226.953 183.702 224.68C188.686 221.685 193.394 218.856 197.179 219.626C203.72 220.955 205.552 224.652 205.626 224.809C205.745 225.062 205.767 225.35 205.687 225.617C205.606 225.885 205.428 226.114 205.189 226.258Z" fill="#090817"/>
<path d="M66.1886 138.389C65.9826 138.515 65.7416 138.57 65.5016 138.549C65.2616 138.527 65.0346 138.43 64.8546 138.269C64.6746 138.109 64.5496 137.896 64.4996 137.66C64.4496 137.425 64.4756 137.179 64.5746 136.959C66.8146 132.066 70.4586 127.951 75.0446 125.137L75.0836 125.113C79.5326 122.441 84.6556 121.102 89.8426 121.252C90.1356 121.269 90.4116 121.4 90.6106 121.618C90.8096 121.835 90.9146 122.121 90.9056 122.416C90.8956 122.71 90.7716 122.989 90.5586 123.193C90.3466 123.397 90.0626 123.51 89.7686 123.507C85.0186 123.37 80.3286 124.596 76.2536 127.042L76.2176 127.064C72.0186 129.641 68.6806 133.41 66.6306 137.89C66.5366 138.097 66.3826 138.271 66.1886 138.389Z" fill="#080717"/>
<path d="M90.3535 154.057C94.1985 151.727 95.4254 146.721 93.0954 142.877C90.7664 139.032 85.7605 137.804 81.9155 140.134C78.0715 142.464 76.8434 147.469 79.1734 151.314C81.5034 155.158 86.5095 156.386 90.3535 154.057Z" fill="#080717"/>
<path d="M112.987 156.22C110.916 152.735 104.908 152.482 99.5695 155.654C94.2305 158.827 91.5805 164.224 93.6515 167.71C95.7235 171.195 101.73 171.448 107.07 168.275C112.408 165.102 115.058 159.705 112.987 156.22Z" fill="#6556FF"/>
<path d="M148.311 212.678C148.074 212.82 147.794 212.871 147.522 212.821C147.25 212.77 147.006 212.622 146.836 212.404C146.667 212.185 146.583 211.912 146.602 211.636C146.62 211.36 146.739 211.101 146.936 210.907C147.206 210.64 153.645 204.351 158.455 202.058C158.725 201.929 159.035 201.914 159.317 202.014C159.599 202.115 159.83 202.323 159.958 202.593C160.086 202.864 160.102 203.174 160.002 203.456C159.902 203.738 159.693 203.969 159.423 204.097C154.95 206.218 148.582 212.455 148.517 212.517C148.455 212.579 148.387 212.632 148.311 212.678ZM156.028 220.474C155.794 220.616 155.516 220.668 155.246 220.619C154.976 220.571 154.731 220.426 154.561 220.211C154.39 219.996 154.304 219.727 154.317 219.452C154.331 219.178 154.444 218.918 154.636 218.722C154.838 218.512 159.689 213.561 165.957 210.805C166.23 210.685 166.54 210.678 166.82 210.787C167.098 210.895 167.323 211.11 167.444 211.384C167.565 211.659 167.57 211.969 167.462 212.248C167.353 212.527 167.138 212.752 166.864 212.872C161.011 215.441 156.3 220.245 156.251 220.293C156.185 220.363 156.111 220.423 156.028 220.474ZM174.489 220.124C174.372 220.195 174.242 220.244 174.106 220.269C168.33 221.319 164.05 226.354 164.007 226.404C163.815 226.633 163.541 226.775 163.244 226.8C162.947 226.826 162.651 226.733 162.423 226.542C162.194 226.351 162.049 226.076 162.022 225.78C161.994 225.483 162.087 225.187 162.276 224.957C162.47 224.725 167.108 219.247 173.703 218.048C173.963 218 174.231 218.045 174.46 218.175C174.69 218.305 174.868 218.511 174.962 218.758C175.055 219.005 175.059 219.277 174.973 219.526C174.887 219.776 174.716 219.987 174.489 220.124Z" fill="#080717"/>
</svg>
