<svg width="344" height="344" viewBox="0 0 344 344" fill="none" xmlns="http://www.w3.org/2000/svg">
<path d="M322.016 177.106C322.016 101.112 260.41 39.5068 184.416 39.5068C108.421 39.5068 46.8154 101.113 46.8154 177.107C46.8154 253.101 108.421 314.707 184.416 314.707C260.41 314.707 322.016 253.101 322.016 177.106Z" fill="#DDE2FA"/>
<path d="M235.284 103.878C253.28 103.878 267.869 89.2891 267.869 71.2926C267.869 53.296 253.28 38.707 235.284 38.707C217.288 38.707 202.698 53.296 202.698 71.2926C202.698 89.2891 217.288 103.878 235.284 103.878Z" fill="white"/>
<path d="M307.808 19.9922H189.054C187.465 19.9922 185.942 20.6234 184.818 21.747C183.695 22.8705 183.063 24.3945 183.063 25.9834V115.796C183.063 116.582 183.218 117.362 183.519 118.089C183.82 118.816 184.262 119.477 184.818 120.033C185.374 120.589 186.034 121.031 186.761 121.332C187.489 121.633 188.268 121.788 189.055 121.788H200.517L191.309 145.124C191.228 145.33 191.219 145.558 191.284 145.771C191.35 145.982 191.486 146.166 191.669 146.29C191.853 146.414 192.074 146.473 192.295 146.455C192.517 146.437 192.725 146.344 192.887 146.191L218.742 121.788H307.808C309.397 121.788 310.921 121.157 312.044 120.034C313.168 118.91 313.799 117.386 313.799 115.797V25.9834C313.799 24.3945 313.168 22.8706 312.045 21.7471C310.921 20.6235 309.397 19.9923 307.808 19.9922Z" fill="white"/>
<path d="M192.223 147.268C191.865 147.266 191.515 147.157 191.22 146.953C190.881 146.731 190.63 146.397 190.51 146.009C190.39 145.622 190.409 145.204 190.563 144.829L199.339 122.59H189.055C187.254 122.588 185.527 121.872 184.254 120.598C182.98 119.324 182.264 117.598 182.262 115.797V25.9833C182.264 24.1823 182.98 22.4557 184.254 21.1821C185.527 19.9087 187.254 19.1923 189.055 19.1904H307.808C309.61 19.1923 311.336 19.9087 312.61 21.1821C313.883 22.4557 314.6 24.1823 314.602 25.9833V115.796C314.6 117.596 313.883 119.323 312.61 120.596C311.336 121.87 309.61 122.586 307.808 122.588H219.06L193.437 146.774C193.111 147.088 192.676 147.265 192.223 147.268ZM189.055 20.7941C187.679 20.7956 186.36 21.3428 185.387 22.3157C184.414 23.2885 183.867 24.6076 183.865 25.9835V115.796C183.866 117.172 184.413 118.491 185.386 119.465C186.359 120.438 187.678 120.985 189.055 120.987H200.517C200.648 120.986 200.776 121.019 200.892 121.079C201.008 121.14 201.106 121.229 201.18 121.337C201.254 121.445 201.299 121.57 201.314 121.699C201.329 121.83 201.311 121.961 201.263 122.082L192.055 145.418C192.041 145.455 192.039 145.495 192.051 145.533C192.062 145.571 192.087 145.603 192.119 145.625C192.152 145.648 192.191 145.658 192.23 145.655C192.269 145.652 192.307 145.636 192.336 145.609L218.191 121.205C218.34 121.065 218.537 120.987 218.742 120.987H307.808C309.183 120.985 310.502 120.438 311.475 119.465C312.449 118.492 312.996 117.173 312.998 115.797V25.9833C312.996 24.6074 312.449 23.2883 311.475 22.3155C310.502 21.3426 309.183 20.7954 307.808 20.7939L189.055 20.7941Z" fill="#090817"/>
<path d="M247.553 108.509C225.732 108.509 207.979 90.7555 207.979 68.934C207.979 47.1129 225.732 29.3594 247.553 29.3594C269.375 29.3594 287.128 47.1125 287.128 68.934C287.128 90.7555 269.375 108.509 247.553 108.509ZM247.553 32.5662C227.5 32.5662 211.186 48.8811 211.186 68.934C211.186 88.9872 227.501 105.301 247.553 105.301C267.606 105.301 283.921 88.9866 283.921 68.934C283.921 48.8815 267.606 32.5662 247.553 32.5662Z" fill="#090817"/>
<path d="M247.552 71.8462C255.687 71.8462 262.28 65.2521 262.28 57.1183C262.28 48.9844 255.687 42.3906 247.552 42.3906C239.419 42.3906 232.825 48.9844 232.825 57.1183C232.825 65.2521 239.419 71.8462 247.552 71.8462Z" fill="#080717"/>
<path d="M266.186 84.8757C266.186 79.9334 264.224 75.1941 260.729 71.6999C257.234 68.205 252.495 66.2422 247.553 66.2422C242.611 66.2422 237.872 68.205 234.378 71.6999C230.883 75.1941 228.92 79.9334 228.92 84.8757V95.4756H266.186V84.8757Z" fill="#080717"/>
<path d="M280.537 88.2396C280.225 88.2396 279.917 88.1655 279.638 88.0246L213.025 54.485C212.787 54.3683 212.575 54.2055 212.401 54.0062C212.226 53.8069 212.093 53.575 212.009 53.3239C211.924 53.0728 211.891 52.8075 211.909 52.5433C211.928 52.2791 211.999 52.0212 212.118 51.7847C212.237 51.5481 212.402 51.3375 212.603 51.165C212.804 50.9924 213.037 50.8615 213.289 50.7797C213.541 50.6978 213.807 50.6667 214.071 50.6882C214.335 50.7097 214.592 50.7833 214.827 50.9047L281.441 84.445C281.844 84.6475 282.167 84.9802 282.357 85.3897C282.548 85.7985 282.595 86.2596 282.49 86.6989C282.386 87.1382 282.137 87.5291 281.782 87.8083C281.428 88.0881 280.99 88.2403 280.539 88.2396H280.537Z" fill="#6556FF"/>
<path d="M162.665 206.182C183.312 193.67 189.906 166.79 177.394 146.143C164.882 125.497 138.002 118.902 117.355 131.414C96.7086 143.926 90.1144 170.806 102.626 191.453C115.138 212.1 142.019 218.694 162.665 206.182Z" fill="white"/>
<path d="M190.674 203.457L183.809 211.807C181.343 214.805 181.776 219.235 184.774 221.701L234.505 262.591C237.504 265.057 241.934 264.625 244.4 261.626L251.265 253.276C253.731 250.277 253.299 245.847 250.3 243.382L200.569 202.492C197.57 200.026 193.14 200.458 190.674 203.457Z" fill="white"/>
<path d="M159.748 201.364C177.735 190.464 183.48 167.047 172.58 149.06C161.679 131.074 138.262 125.329 120.276 136.229C102.29 147.129 96.545 170.546 107.444 188.533C118.345 206.52 141.762 212.264 159.748 201.364Z" fill="white"/>
<path d="M168.611 185.11L161.543 193.706L190.69 217.671L197.758 209.075L168.611 185.11Z" fill="#080717"/>
<path d="M243.205 264.131C241.758 265.007 240.076 265.412 238.39 265.292C236.704 265.171 235.096 264.531 233.789 263.459L184.057 222.57C182.388 221.194 181.333 219.212 181.122 217.06C180.913 214.907 181.566 212.758 182.938 211.087L189.803 202.737C190.483 201.909 191.32 201.223 192.265 200.719C193.211 200.215 194.246 199.902 195.312 199.798C196.379 199.694 197.455 199.802 198.48 200.113C199.505 200.425 200.459 200.936 201.286 201.617L251.018 242.508C251.846 243.188 252.532 244.025 253.036 244.97C253.54 245.915 253.853 246.951 253.957 248.017C254.061 249.083 253.954 250.16 253.642 251.185C253.329 252.21 252.819 253.163 252.137 253.991L245.273 262.341C244.69 263.05 243.99 263.655 243.205 264.131ZM193.04 202.874C192.472 203.218 191.967 203.657 191.546 204.17L184.681 212.52C183.689 213.73 183.217 215.283 183.369 216.841C183.521 218.397 184.284 219.831 185.491 220.826L235.224 261.716C236.433 262.709 237.987 263.181 239.544 263.029C241.101 262.877 242.534 262.113 243.529 260.906L250.394 252.556C251.388 251.347 251.861 249.793 251.709 248.235C251.557 246.677 250.792 245.245 249.584 244.25L199.852 203.359C198.907 202.584 197.744 202.121 196.523 202.034C195.303 201.947 194.087 202.241 193.04 202.874Z" fill="#090817"/>
<path d="M163.288 207.127C147.46 216.72 126.622 215.838 111.533 203.433C106.985 199.693 103.217 195.094 100.446 189.899C97.6749 184.703 95.9549 179.012 95.3827 173.151C94.8111 167.29 95.3992 161.374 97.1139 155.741C98.8286 150.107 101.636 144.866 105.376 140.318C121.079 121.218 149.392 118.456 168.491 134.159C174.022 138.709 178.384 144.518 181.21 151.099C184.037 157.68 185.245 164.843 184.736 171.987C184.227 179.131 182.014 186.05 178.282 192.164C174.551 198.277 169.409 203.408 163.288 207.127ZM117.908 132.395C112.094 135.926 107.21 140.799 103.666 146.604C100.122 152.411 98.0196 158.981 97.536 165.766C97.0524 172.551 98.2008 179.353 100.885 185.603C103.57 191.853 107.713 197.369 112.967 201.69C131.104 216.602 157.993 213.978 172.906 195.842C187.818 177.706 185.194 150.817 167.058 135.903C152.73 124.123 132.939 123.286 117.908 132.395Z" fill="#090817"/>
<path d="M160.317 202.361C153.366 206.552 145.288 208.488 137.192 207.901C129.096 207.314 121.381 204.233 115.108 199.083C98.4065 185.351 95.9919 160.595 109.723 143.895C112.993 139.918 117.015 136.623 121.558 134.2C126.101 131.777 131.077 130.272 136.202 129.772C141.326 129.272 146.5 129.787 151.425 131.286C156.351 132.785 160.934 135.24 164.911 138.51C181.612 152.241 184.027 176.998 170.297 193.698C167.484 197.129 164.109 200.058 160.317 202.361ZM120.872 137.163C117.299 139.333 114.118 142.094 111.467 145.328C98.5269 161.066 100.803 184.399 116.541 197.339C124.111 203.564 133.844 206.525 143.598 205.574C153.352 204.622 162.329 199.835 168.553 192.265C181.493 176.526 179.217 153.193 163.478 140.253C157.566 135.4 150.296 132.497 142.666 131.943C135.037 131.39 127.424 133.214 120.872 137.163Z" fill="#090817"/>
<path d="M248.124 214.001C248.124 214.001 220.48 206.157 211.883 206.678C203.285 207.199 186.2 221.309 186.726 225.656C187.25 230.003 194.488 232.161 194.488 232.161C194.488 232.161 194.8 239.331 202.258 238.697C202.258 238.697 201.654 246.015 209.957 244.869C209.957 244.869 211.43 252.057 219.594 250.328C227.758 248.599 237.7 238.689 243.764 239.921C249.827 241.154 251.417 244.484 251.417 244.484" fill="white"/>
<path d="M252.004 245.449C251.972 245.469 251.939 245.486 251.904 245.503C251.77 245.567 251.626 245.604 251.477 245.612C251.329 245.619 251.181 245.598 251.041 245.548C250.902 245.499 250.774 245.422 250.663 245.323C250.553 245.224 250.463 245.104 250.4 244.97C250.347 244.865 248.895 242.115 243.541 241.027C240.616 240.432 236.071 243.163 231.676 245.805C227.735 248.172 223.661 250.62 219.83 251.432C216.936 252.046 214.466 251.7 212.489 250.405C210.951 249.353 209.784 247.843 209.155 246.089C206.62 246.268 204.621 245.684 203.205 244.343C201.734 242.95 201.291 241.086 201.168 239.865C199.129 239.832 197.426 239.224 196.091 238.051C194.255 236.437 193.65 234.187 193.455 233.004C191.481 232.289 186.112 229.974 185.607 225.793C185.445 224.451 186.276 222.706 188.149 220.461C192.859 214.812 204.701 205.983 211.817 205.553C220.508 205.025 247.299 212.594 248.436 212.916C248.723 212.998 248.967 213.192 249.113 213.453C249.259 213.714 249.294 214.023 249.212 214.311C249.131 214.599 248.938 214.843 248.676 214.988C248.415 215.134 248.106 215.17 247.818 215.088C247.544 215.01 220.263 207.301 211.954 207.806C206.103 208.161 194.926 215.856 189.884 221.907C188.291 223.816 187.793 225.048 187.851 225.523C188.208 228.485 192.998 230.538 194.815 231.08C195.039 231.147 195.237 231.283 195.382 231.468C195.526 231.652 195.609 231.878 195.619 232.112C195.62 232.134 195.776 234.779 197.596 236.367C198.703 237.331 200.241 237.736 202.168 237.573C202.332 237.559 202.496 237.58 202.651 237.637C202.805 237.693 202.945 237.782 203.061 237.898C203.177 238.014 203.267 238.154 203.323 238.308C203.38 238.462 203.402 238.626 203.389 238.79C203.387 238.81 203.226 241.265 204.771 242.714C205.84 243.716 207.533 244.066 209.809 243.752C210.093 243.713 210.381 243.783 210.615 243.948C210.849 244.114 211.011 244.363 211.069 244.643C211.12 244.886 212.447 250.69 219.366 249.225C222.827 248.492 226.737 246.144 230.517 243.871C235.501 240.876 240.209 238.047 243.994 238.817C250.535 240.146 252.367 243.843 252.441 244C252.56 244.253 252.582 244.541 252.502 244.808C252.421 245.076 252.243 245.305 252.004 245.449Z" fill="#090817"/>
<path d="M113.004 157.579C112.798 157.705 112.557 157.76 112.317 157.739C112.077 157.717 111.85 157.62 111.67 157.459C111.49 157.299 111.365 157.086 111.315 156.85C111.265 156.615 111.291 156.369 111.39 156.149C113.63 151.256 117.274 147.141 121.86 144.327L121.899 144.303C126.348 141.631 131.471 140.292 136.658 140.442C136.951 140.459 137.227 140.59 137.426 140.808C137.625 141.025 137.73 141.311 137.721 141.606C137.711 141.9 137.587 142.179 137.374 142.383C137.162 142.587 136.878 142.7 136.584 142.697C131.834 142.56 127.144 143.786 123.069 146.232L123.033 146.254C118.834 148.831 115.496 152.6 113.446 157.08C113.352 157.287 113.198 157.461 113.004 157.579Z" fill="#080717"/>
<path d="M137.169 173.248C141.014 170.918 142.241 165.912 139.911 162.068C137.582 158.223 132.576 156.995 128.731 159.325C124.887 161.655 123.659 166.66 125.989 170.505C128.319 174.349 133.325 175.577 137.169 173.248Z" fill="#080717"/>
<path d="M159.802 175.411C157.731 171.926 151.723 171.673 146.385 174.845C141.046 178.018 138.396 183.415 140.467 186.901C142.539 190.386 148.545 190.639 153.885 187.466C159.223 184.293 161.873 178.896 159.802 175.411Z" fill="#6556FF"/>
<path d="M195.126 231.868C194.889 232.01 194.609 232.061 194.337 232.011C194.065 231.96 193.822 231.812 193.652 231.594C193.483 231.375 193.399 231.102 193.418 230.826C193.436 230.55 193.555 230.291 193.752 230.097C194.022 229.83 200.46 223.541 205.27 221.248C205.54 221.119 205.851 221.104 206.133 221.204C206.415 221.305 206.646 221.513 206.774 221.783C206.902 222.054 206.918 222.364 206.818 222.646C206.718 222.928 206.509 223.159 206.239 223.287C201.766 225.408 195.398 231.645 195.333 231.707C195.271 231.769 195.202 231.822 195.126 231.868ZM202.844 239.664C202.61 239.806 202.331 239.858 202.061 239.809C201.791 239.761 201.547 239.616 201.377 239.401C201.206 239.186 201.119 238.917 201.132 238.642C201.146 238.368 201.259 238.108 201.451 237.912C201.653 237.702 206.504 232.751 212.772 229.995C213.045 229.875 213.356 229.868 213.636 229.977C213.914 230.085 214.138 230.3 214.259 230.574C214.38 230.849 214.386 231.159 214.278 231.438C214.169 231.717 213.954 231.942 213.68 232.062C207.827 234.631 203.116 239.435 203.067 239.483C203.001 239.553 202.927 239.613 202.844 239.664ZM221.305 239.314C221.188 239.385 221.058 239.434 220.922 239.459C215.146 240.509 210.866 245.544 210.823 245.594C210.631 245.823 210.356 245.965 210.059 245.99C209.762 246.016 209.466 245.923 209.238 245.732C209.009 245.541 208.865 245.266 208.838 244.97C208.81 244.673 208.902 244.377 209.091 244.147C209.285 243.915 213.923 238.437 220.518 237.238C220.778 237.19 221.047 237.235 221.276 237.365C221.506 237.495 221.684 237.701 221.778 237.948C221.871 238.195 221.875 238.467 221.789 238.716C221.703 238.966 221.532 239.177 221.305 239.314Z" fill="#080717"/>
</svg>
