<svg width="25" height="28" viewBox="0 0 25 28" fill="none" xmlns="http://www.w3.org/2000/svg">
<path d="M20.1667 8.66667C20.1667 6.63334 19.3589 4.68329 17.9212 3.24551C16.4834 1.80774 14.5333 1 12.5 1C10.4667 1 8.51663 1.80774 7.07885 3.24551C5.64107 4.68329 4.83333 6.63334 4.83333 8.66667C4.83333 17.6111 1 20.1667 1 20.1667H24C24 20.1667 20.1667 17.6111 20.1667 8.66667Z" stroke="#324665" stroke-width="2" stroke-linecap="round" stroke-linejoin="round"/>
<path d="M14.7106 25.2783C14.486 25.6656 14.1635 25.987 13.7756 26.2105C13.3876 26.434 12.9478 26.5516 12.5 26.5516C12.0523 26.5516 11.6125 26.434 11.2245 26.2105C10.8366 25.987 10.5141 25.6656 10.2895 25.2783" stroke="#324665" stroke-width="2" stroke-linecap="round" stroke-linejoin="round"/>
</svg>
