<svg width="39" height="40" viewBox="0 0 39 40" fill="none" xmlns="http://www.w3.org/2000/svg">
<rect width="38.8139" height="40" rx="6" fill="#F3F6F9"/>
<path d="M29.8885 38.1395L29.2109 32.5524C29.1086 31.7091 28.5455 31.0013 27.7632 30.7325L25.1502 29.8349C24.7913 29.7115 24.3977 29.7901 24.121 30.0331L23.3513 29.7686C22.9141 29.6184 22.6192 29.1968 22.6192 28.7218V26.9424L24.9253 25.9521C26.1223 25.4382 26.902 24.2329 26.902 22.8965V22.3448C27.789 22.3448 28.5081 21.6038 28.5081 20.6896C28.5081 20.2773 28.3615 19.9005 28.1194 19.6107C28.5739 17.906 29.8512 12.5137 28.5081 10.2069L29.0435 8C29.0435 8 23.4221 8.13793 20.4776 9.10345L21.5484 8C21.5484 8 14.0198 8 12.4477 10.7581L12.4472 10.7586C12.4472 10.7586 9.77037 10.7356 9.77037 14.069C9.77037 15.289 10.4307 18.3353 10.7141 19.5872C10.4603 19.8799 10.3057 20.2661 10.3057 20.6896C10.3057 21.6038 11.0248 22.3448 11.9118 22.3448V22.8965C11.9118 24.2329 12.6915 25.4382 13.8885 25.9522L16.1947 26.9425V28.7219C16.1947 29.1969 15.8998 29.6185 15.4626 29.7687L14.6929 30.0331C14.4162 29.7902 14.0226 29.7116 13.6637 29.8349L11.0507 30.7326C10.2683 31.0013 9.70526 31.7092 9.603 32.5525L8.92536 38.1395C8.80551 39.1274 9.55294 39.9999 10.519 39.9999H10.5341H28.2798H28.2948C29.2609 39.9999 30.0084 39.1274 29.8885 38.1395Z" fill="#FFD7A3"/>
<path d="M22.6191 26.9424L16.1947 26.9425V28.7218C16.1947 29.119 15.9815 29.4688 15.6582 29.6638C20.1482 30.4737 22.6191 26.9424 22.6191 26.9424Z" fill="#FDC88E"/>
<path d="M10.8411 20.1379C10.8411 20.1379 9.77039 15.6225 9.77039 14.069C9.77039 10.7356 12.4472 10.7586 12.4472 10.7586L12.4477 10.7581C14.0198 8 21.5484 8 21.5484 8L20.4777 9.10345C23.4222 8.13793 29.0435 8 29.0435 8L28.5081 10.2069C30.1142 12.9655 27.9727 20.1379 27.9727 20.1379H10.8411Z" fill="#734A3E"/>
<path d="M21.5484 8C21.5484 8 14.0198 8 12.4477 10.7581L12.4472 10.7586C12.4472 10.7586 9.77039 10.7356 9.77039 14.069C9.77039 15.6225 10.8411 20.1379 10.8411 20.1379C10.8411 20.1379 21.9723 15.0115 29.0435 8C29.0435 8 23.4222 8.13793 20.4777 9.10345L21.5484 8Z" fill="#623F33"/>
<path d="M26.9021 19.0344V17.931C26.9021 16.4075 25.7036 15.1724 24.2252 15.1724H14.5887C13.1104 15.1724 11.9119 16.4075 11.9119 17.931V19.0344C11.0248 19.0344 10.3058 19.7755 10.3058 20.6896C10.3058 21.6037 11.0248 22.3448 11.9119 22.3448V22.8965C11.9119 24.2328 12.6916 25.4381 13.8886 25.9522L17.3478 27.4376C18.0002 27.7178 18.7001 27.862 19.4069 27.862C20.1137 27.862 20.8135 27.7177 21.466 27.4376L24.9254 25.9521C26.1224 25.4382 26.9021 24.2329 26.9021 22.8965V22.3448C27.7891 22.3448 28.5081 21.6037 28.5081 20.6896C28.5081 19.7755 27.7891 19.0344 26.9021 19.0344Z" fill="#FFE1B2"/>
<path d="M15.6594 21.2411C15.3649 21.2411 15.124 20.9928 15.124 20.6894V20.1377C15.124 19.8342 15.3649 19.5859 15.6594 19.5859C15.9538 19.5859 16.1948 19.8342 16.1948 20.1377V20.6894C16.1948 20.9928 15.9538 21.2411 15.6594 21.2411Z" fill="#623F33"/>
<path d="M23.1544 21.2411C22.86 21.2411 22.6191 20.9928 22.6191 20.6894V20.1377C22.6191 19.8342 22.86 19.5859 23.1544 19.5859C23.4489 19.5859 23.6898 19.8342 23.6898 20.1377V20.6894C23.6898 20.9928 23.4489 21.2411 23.1544 21.2411Z" fill="#623F33"/>
<path d="M19.4069 25.1186C18.4551 25.1186 17.5648 24.8772 16.9643 24.4562C16.72 24.2849 16.6564 23.9417 16.8229 23.6898C16.9889 23.4382 17.3222 23.3727 17.5666 23.5441C17.9875 23.839 18.6755 24.0152 19.4069 24.0152C20.1384 24.0152 20.8264 23.839 21.2473 23.5441C21.4922 23.3722 21.8247 23.4379 21.9909 23.6898C22.1574 23.9417 22.0939 24.2849 21.8495 24.4562C21.2491 24.8772 20.3587 25.1186 19.4069 25.1186Z" fill="#E4B07B"/>
<path d="M29.8885 38.1392L29.2109 32.5522C29.1086 31.7089 28.5455 31.001 27.7632 30.7323L25.1502 29.8346C24.6951 29.6783 24.1832 29.8453 23.9261 30.2626C22.9771 31.8036 21.3091 32.8272 19.4069 32.8272C17.5048 32.8272 15.8368 31.8035 14.8878 30.2626C14.6307 29.8453 14.1188 29.6783 13.6637 29.8346L11.0507 30.7323C10.2683 31.001 9.70525 31.7089 9.603 32.5522L8.92536 38.1392C8.80551 39.1271 9.55301 39.9997 10.5191 39.9997H28.2949C29.2609 39.9997 30.0084 39.1271 29.8885 38.1392Z" fill="#00BEA4"/>
<path d="M10.0493 31.46C9.81159 31.7701 9.65245 32.1448 9.603 32.5526L8.92536 38.1396C8.80551 39.1275 9.55301 40.0001 10.5191 40.0001H13.5179V36.4093C13.5179 35.8784 13.3323 35.3655 12.9951 34.9642L10.0493 31.46Z" fill="#00AB9A"/>
<path d="M28.7646 31.46C29.0023 31.7701 29.1614 32.1448 29.2109 32.5526L29.8885 38.1396C30.0084 39.1275 29.2609 40.0001 28.2948 40.0001H25.296V36.4093C25.296 35.8784 25.4816 35.3655 25.8188 34.9642L28.7646 31.46Z" fill="#00AB9A"/>
<path d="M14.7223 24.8084C14.2885 24.3291 14.0534 23.6966 14.0534 23.0412V16.7888C15.7574 16.6571 21.1298 16.1783 24.2253 15.1724H14.5887C14.4044 15.1724 14.2259 15.1945 14.0533 15.2331V15.2279C12.8316 15.4836 11.9119 16.5964 11.9119 17.931V19.0344C11.0248 19.0344 10.3058 19.7755 10.3058 20.6896C10.3058 21.6037 11.0248 22.3448 11.9119 22.3448V22.8965C11.9119 24.2329 12.6916 25.4382 13.8886 25.9522L17.3477 27.4376C17.517 27.5103 17.6898 27.5729 17.8648 27.6272C16.3361 26.4746 15.3185 25.4671 14.7223 24.8084Z" fill="#FFD7A3"/>
</svg>
