<svg width="209" height="175" viewBox="0 0 209 175" fill="none" xmlns="http://www.w3.org/2000/svg">
<rect width="209" height="174" rx="6" fill="#F3F6F9"/>
<g clip-path="url(#clip0_952_4361)">
<path d="M150.238 166.063L147.287 141.737C146.842 138.065 144.39 134.983 140.984 133.813L129.607 129.904C128.044 129.367 126.33 129.709 125.126 130.767L121.774 129.616C119.871 128.962 118.586 127.126 118.586 125.058V117.31L128.628 112.998C133.839 110.761 137.234 105.513 137.234 99.694V97.2918C141.097 97.2918 144.227 94.0652 144.227 90.085C144.227 88.2896 143.589 86.6489 142.535 85.3871C144.514 77.9647 150.075 54.4862 144.227 44.442L146.558 34.833C146.558 34.833 122.083 35.4336 109.262 39.6375L113.924 34.833C113.924 34.833 81.1439 34.833 74.2986 46.8422L74.2965 46.8443C74.2965 46.8443 62.6414 46.7443 62.6414 61.2579C62.6414 66.5699 65.5164 79.834 66.7507 85.285C65.6455 86.5594 64.9724 88.241 64.9724 90.085C64.9724 94.0652 68.1033 97.2918 71.9655 97.2918V99.694C71.9655 105.513 75.3604 110.761 80.5723 112.999L90.6138 117.311V125.058C90.6138 127.126 89.3296 128.962 87.4261 129.616L84.0746 130.768C82.8698 129.71 81.1559 129.368 79.5935 129.905L68.2161 133.813C64.8096 134.983 62.3579 138.065 61.9127 141.737L58.9622 166.064C58.4403 170.365 61.6947 174.164 65.9011 174.164H65.9666H143.233H143.299C147.505 174.164 150.76 170.365 150.238 166.063Z" fill="#FFD7A3"/>
<path d="M118.586 117.311L90.6137 117.311V125.058C90.6137 126.788 89.6854 128.311 88.2777 129.16C107.827 132.686 118.586 117.311 118.586 117.311Z" fill="#FDC88E"/>
<path d="M67.3037 87.6827C67.3037 87.6827 62.6416 68.022 62.6416 61.2579C62.6416 46.7443 74.2967 46.8443 74.2967 46.8443L74.2988 46.8422C81.1441 34.833 113.924 34.833 113.924 34.833L109.262 39.6375C122.083 35.4336 146.559 34.833 146.559 34.833L144.228 44.442C151.221 56.4533 141.897 87.6827 141.897 87.6827H67.3037Z" fill="#734A3E"/>
<path d="M113.924 34.833C113.924 34.833 81.1441 34.833 74.2988 46.8422L74.2968 46.8443C74.2968 46.8443 62.6416 46.7443 62.6416 61.2579C62.6416 68.022 67.3037 87.6827 67.3037 87.6827C67.3037 87.6827 115.77 65.3618 146.559 34.833C146.559 34.833 122.083 35.4336 109.262 39.6375L113.924 34.833Z" fill="#623F33"/>
<path d="M137.234 82.8783V78.0738C137.234 71.4403 132.016 66.0625 125.579 66.0625H83.6208C77.1839 66.0625 71.9656 71.4403 71.9656 78.0738V82.8783C68.1034 82.8783 64.9725 86.1049 64.9725 90.0851C64.9725 94.0653 68.1034 97.2919 71.9656 97.2919V99.6941C71.9656 105.513 75.3605 110.761 80.5724 112.999L95.634 119.467C98.475 120.687 101.522 121.314 104.6 121.314C107.677 121.314 110.724 120.686 113.565 119.467L128.628 112.999C133.84 110.761 137.234 105.513 137.234 99.6941V97.2919C141.097 97.2919 144.228 94.0653 144.228 90.0851C144.228 86.1049 141.097 82.8783 137.234 82.8783Z" fill="#FFE1B2"/>
<path d="M88.2828 92.4871C87.0007 92.4871 85.9518 91.406 85.9518 90.0848V87.6825C85.9518 86.3613 87.0007 85.2803 88.2828 85.2803C89.5649 85.2803 90.6138 86.3613 90.6138 87.6825V90.0848C90.6138 91.406 89.5649 92.4871 88.2828 92.4871Z" fill="#623F33"/>
<path d="M120.917 92.4871C119.635 92.4871 118.586 91.406 118.586 90.0848V87.6825C118.586 86.3613 119.635 85.2803 120.917 85.2803C122.199 85.2803 123.248 86.3613 123.248 87.6825V90.0848C123.248 91.406 122.199 92.4871 120.917 92.4871Z" fill="#623F33"/>
<path d="M104.6 109.369C100.456 109.369 96.5793 108.318 93.9648 106.484C92.9006 105.739 92.6238 104.244 93.3491 103.147C94.0717 102.052 95.5231 101.767 96.5872 102.513C98.4196 103.797 101.415 104.564 104.6 104.564C107.785 104.564 110.781 103.797 112.613 102.513C113.679 101.765 115.127 102.051 115.851 103.147C116.576 104.244 116.3 105.739 115.235 106.484C112.621 108.318 108.744 109.369 104.6 109.369Z" fill="#E4B07B"/>
<path d="M150.238 166.063L147.287 141.737C146.842 138.065 144.39 134.983 140.984 133.812L129.607 129.904C127.625 129.223 125.396 129.95 124.277 131.767C120.145 138.477 112.882 142.934 104.6 142.934C96.3178 142.934 89.0552 138.477 84.9231 131.767C83.8039 129.95 81.5749 129.223 79.5935 129.904L68.2161 133.812C64.8095 134.983 62.3579 138.065 61.9127 141.737L58.9622 166.063C58.4403 170.364 61.695 174.164 65.9013 174.164H143.299C147.505 174.164 150.76 170.364 150.238 166.063Z" fill="#00BEA4"/>
<path d="M63.8559 136.979C62.8209 138.33 62.128 139.961 61.9127 141.737L58.9622 166.063C58.4403 170.365 61.695 174.164 65.9013 174.164H78.9586V158.529C78.9586 156.218 78.1503 153.984 76.6821 152.237L63.8559 136.979Z" fill="#00AB9A"/>
<path d="M145.344 136.979C146.379 138.33 147.072 139.961 147.287 141.737L150.238 166.063C150.76 170.365 147.505 174.164 143.299 174.164H130.241V158.529C130.241 156.218 131.05 153.984 132.518 152.237L145.344 136.979Z" fill="#00AB9A"/>
<path d="M84.2024 108.019C82.3136 105.932 81.29 103.178 81.29 100.324V73.1005C88.7094 72.5273 112.102 70.4424 125.58 66.0625H83.6208C82.8183 66.0625 82.0412 66.1589 81.2897 66.327V66.3045C75.97 67.4177 71.9656 72.263 71.9656 78.0738V82.8783C68.1034 82.8783 64.9725 86.1049 64.9725 90.0851C64.9725 94.0653 68.1034 97.2919 71.9656 97.2919V99.6941C71.9656 105.513 75.3605 110.761 80.5724 112.999L95.6337 119.467C96.3709 119.783 97.1233 120.056 97.8852 120.292C91.229 115.274 86.7983 110.887 84.2024 108.019Z" fill="#FFD7A3"/>
</g>
<defs>
<clipPath id="clip0_952_4361">
<rect width="135.2" height="139.331" fill="white" transform="translate(37 34.833)"/>
</clipPath>
</defs>
</svg>
