<svg width="22" height="22" viewBox="0 0 22 22" fill="none" xmlns="http://www.w3.org/2000/svg">
<path d="M9.87906 13.8055C9.39882 13.3885 8.91 12.8817 8.4427 12.2841C7.97541 11.6864 7.60175 11.0904 7.31342 10.5249C7.21297 10.328 7.13057 10.1496 7.06504 9.99312C7.0265 9.90116 7.00258 9.83851 6.99226 9.80852C6.82456 9.42863 6.95677 8.91742 7.26667 8.67496L9.87906 13.8055ZM9.87906 13.8055C10.0462 13.9507 10.2 14.0741 10.3365 14.1757L9.87906 13.8055ZM18.195 18.4344L18.1951 18.4343C18.8399 17.93 18.9019 17.0211 18.336 16.4295L18.2276 16.5332L18.336 16.4295L15.1791 13.1296L15.179 13.1296C14.6388 12.5652 13.7189 12.4965 13.1036 12.9776L11.569 14.1776C11.4467 14.2733 11.2724 14.3271 11.0895 14.3285C10.9065 14.3299 10.7316 14.2788 10.6082 14.1852L10.6083 14.185L10.6015 14.1804C10.5575 14.1507 10.5041 14.1137 10.4262 14.0555L10.4261 14.0555C10.2928 13.9562 10.1419 13.8352 9.97743 13.6923L9.97741 13.6923C9.50448 13.2816 9.02229 12.7818 8.56087 12.1917C8.09944 11.6015 7.73098 11.0137 7.44706 10.4568L7.44704 10.4567C7.34813 10.2629 7.26734 10.0879 7.2034 9.93518L7.20338 9.93515C7.16535 9.84438 7.14287 9.78519 7.13411 9.75972L7.13461 9.75955L7.12949 9.74794C7.06121 9.59328 7.05173 9.40519 7.09598 9.2262C7.14031 9.04689 7.23523 8.89002 7.35907 8.79312C7.35908 8.79311 7.35909 8.7931 7.3591 8.7931L8.89368 7.59315C9.50911 7.11195 9.6646 6.20341 9.24653 5.54237C9.24653 5.54237 9.24653 5.54237 9.24653 5.54237L6.80564 1.68267L6.67948 1.76245L6.80563 1.68267C6.3685 0.991471 5.47017 0.832264 4.82601 1.33596L2.39701 3.2353C1.85717 3.65742 1.58985 4.39232 1.51942 5.27615C1.44866 6.16415 1.57387 7.2308 1.84898 8.3562C2.39918 10.6069 3.55697 13.1246 5.0028 14.9738L5.12097 14.8814L5.00281 14.9738C6.4486 16.8228 8.61272 18.5536 10.6643 19.6303C11.6901 20.1688 12.6951 20.5475 13.5739 20.693C14.4486 20.8379 15.2262 20.7557 15.766 20.3337L15.6736 20.2155L15.766 20.3337L18.195 18.4344ZM17.6506 17.0853L17.6506 17.0853C17.8305 17.2733 17.8114 17.5301 17.6107 17.687L15.1817 19.5864C14.8467 19.8483 14.2742 19.9 13.5152 19.7358C12.7651 19.5736 11.8723 19.2089 10.9385 18.6967C9.07069 17.6722 7.06719 16.0738 5.75015 14.3895C4.43298 12.7048 3.36494 10.3749 2.82124 8.31519C2.54942 7.28541 2.41079 6.33102 2.4343 5.56399C2.45809 4.78778 2.6463 4.24463 2.98136 3.98263L5.41037 2.08329L5.41041 2.08325C5.61018 1.92694 5.86524 1.97043 6.00396 2.18975C6.00396 2.18975 6.00396 2.18975 6.00396 2.18975L8.44484 6.04942C8.60313 6.29984 8.53972 6.66582 8.30934 6.84597C8.30934 6.84597 8.30934 6.84597 8.30934 6.84597L6.77475 8.0458L6.77474 8.0458C6.1813 8.50983 5.94639 9.40799 6.24894 10.0993C6.26115 10.1363 6.29117 10.2129 6.32834 10.3017L6.3284 10.3018C6.40178 10.4765 6.49252 10.6731 6.60194 10.8877L6.60195 10.8877C6.91302 11.4974 7.31372 12.1365 7.81354 12.7759L7.81357 12.776C8.31354 13.4153 8.83767 13.9588 9.35536 14.4085C9.5376 14.5668 9.70679 14.7025 9.8591 14.8161L9.85919 14.8161C9.94845 14.8826 10.0161 14.93 10.0584 14.9576C10.6397 15.3961 11.5634 15.386 12.1533 14.9248C12.1533 14.9248 12.1533 14.9248 12.1533 14.9248L13.6879 13.7249L13.5955 13.6068L13.6879 13.7249C13.918 13.545 14.2891 13.5719 14.4936 13.7855L17.6506 17.0853Z" fill="#8793AB" stroke="#8793AB" stroke-width="0.3"/>
<path d="M12.618 6.10336C13.5231 5.19827 14.9905 5.19827 15.8956 6.10336C16.8007 7.00846 16.8007 8.47591 15.8956 9.38101" stroke="#8793AB" stroke-width="1.3" stroke-linecap="round"/>
<path d="M12.1091 3.29679C13.93 1.47593 16.8822 1.47593 18.703 3.29679C20.5239 5.11765 20.5239 8.06985 18.703 9.89071" stroke="#8793AB" stroke-width="1.3" stroke-linecap="round"/>
</svg>
