<svg width="21" height="19" viewBox="0 0 21 19" fill="none" xmlns="http://www.w3.org/2000/svg">
<path d="M18.2727 1H2.72727C1.77333 1 1 1.77333 1 2.72727V13.0909C1 14.0449 1.77333 14.8182 2.72727 14.8182H18.2727C19.2267 14.8182 20 14.0449 20 13.0909V2.72727C20 1.77333 19.2267 1 18.2727 1Z" stroke="#8793AB" stroke-width="1.1" stroke-linecap="round" stroke-linejoin="round"/>
<path d="M1 6.18164H20" stroke="#8793AB" stroke-width="1.1" stroke-linecap="round" stroke-linejoin="round"/>
<path d="M6.52246 11.3662C6.52246 11.2998 6.5127 11.2402 6.49316 11.1875C6.47363 11.1328 6.4375 11.082 6.38477 11.0352C6.33203 10.9883 6.25586 10.9414 6.15625 10.8945C6.05859 10.8457 5.92969 10.7949 5.76953 10.7422C5.58203 10.6797 5.40137 10.6094 5.22754 10.5312C5.05371 10.4512 4.89844 10.3584 4.76172 10.2529C4.625 10.1455 4.5166 10.0205 4.43652 9.87793C4.35645 9.7334 4.31641 9.56543 4.31641 9.37402C4.31641 9.19043 4.35742 9.02539 4.43945 8.87891C4.52148 8.73047 4.63574 8.60449 4.78223 8.50098C4.93066 8.39551 5.10449 8.31543 5.30371 8.26074C5.50293 8.2041 5.7207 8.17578 5.95703 8.17578C6.26953 8.17578 6.54492 8.23047 6.7832 8.33984C7.02344 8.44727 7.21094 8.60059 7.3457 8.7998C7.48242 8.99707 7.55078 9.23047 7.55078 9.5H6.52832C6.52832 9.39258 6.50586 9.29785 6.46094 9.21582C6.41797 9.13379 6.35254 9.06934 6.26465 9.02246C6.17676 8.97559 6.06641 8.95215 5.93359 8.95215C5.80469 8.95215 5.69629 8.97168 5.6084 9.01074C5.52051 9.0498 5.4541 9.10254 5.40918 9.16895C5.36426 9.2334 5.3418 9.30469 5.3418 9.38281C5.3418 9.44727 5.35938 9.50586 5.39453 9.55859C5.43164 9.60938 5.4834 9.65723 5.5498 9.70215C5.61816 9.74707 5.7002 9.79004 5.7959 9.83105C5.89355 9.87207 6.00293 9.91211 6.12402 9.95117C6.35059 10.0234 6.55176 10.1045 6.72754 10.1943C6.90527 10.2822 7.05469 10.3828 7.17578 10.4961C7.29883 10.6074 7.3916 10.7344 7.4541 10.877C7.51855 11.0195 7.55078 11.1807 7.55078 11.3604C7.55078 11.5518 7.51367 11.7217 7.43945 11.8701C7.36523 12.0186 7.25879 12.1445 7.12012 12.248C6.98145 12.3496 6.81543 12.4268 6.62207 12.4795C6.42871 12.5322 6.21289 12.5586 5.97461 12.5586C5.75586 12.5586 5.54004 12.5312 5.32715 12.4766C5.11621 12.4199 4.9248 12.334 4.75293 12.2188C4.58105 12.1016 4.44336 11.9521 4.33984 11.7705C4.23828 11.5869 4.1875 11.3691 4.1875 11.1172H5.21875C5.21875 11.2422 5.23535 11.3477 5.26855 11.4336C5.30176 11.5195 5.35059 11.5889 5.41504 11.6416C5.47949 11.6924 5.55859 11.7295 5.65234 11.7529C5.74609 11.7744 5.85352 11.7852 5.97461 11.7852C6.10547 11.7852 6.21094 11.7666 6.29102 11.7295C6.37109 11.6904 6.42969 11.6396 6.4668 11.5771C6.50391 11.5127 6.52246 11.4424 6.52246 11.3662ZM10.2783 11.3662C10.2783 11.2998 10.2686 11.2402 10.249 11.1875C10.2295 11.1328 10.1934 11.082 10.1406 11.0352C10.0879 10.9883 10.0117 10.9414 9.91211 10.8945C9.81445 10.8457 9.68555 10.7949 9.52539 10.7422C9.33789 10.6797 9.15723 10.6094 8.9834 10.5312C8.80957 10.4512 8.6543 10.3584 8.51758 10.2529C8.38086 10.1455 8.27246 10.0205 8.19238 9.87793C8.1123 9.7334 8.07227 9.56543 8.07227 9.37402C8.07227 9.19043 8.11328 9.02539 8.19531 8.87891C8.27734 8.73047 8.3916 8.60449 8.53809 8.50098C8.68652 8.39551 8.86035 8.31543 9.05957 8.26074C9.25879 8.2041 9.47656 8.17578 9.71289 8.17578C10.0254 8.17578 10.3008 8.23047 10.5391 8.33984C10.7793 8.44727 10.9668 8.60059 11.1016 8.7998C11.2383 8.99707 11.3066 9.23047 11.3066 9.5H10.2842C10.2842 9.39258 10.2617 9.29785 10.2168 9.21582C10.1738 9.13379 10.1084 9.06934 10.0205 9.02246C9.93262 8.97559 9.82227 8.95215 9.68945 8.95215C9.56055 8.95215 9.45215 8.97168 9.36426 9.01074C9.27637 9.0498 9.20996 9.10254 9.16504 9.16895C9.12012 9.2334 9.09766 9.30469 9.09766 9.38281C9.09766 9.44727 9.11523 9.50586 9.15039 9.55859C9.1875 9.60938 9.23926 9.65723 9.30566 9.70215C9.37402 9.74707 9.45605 9.79004 9.55176 9.83105C9.64941 9.87207 9.75879 9.91211 9.87988 9.95117C10.1064 10.0234 10.3076 10.1045 10.4834 10.1943C10.6611 10.2822 10.8105 10.3828 10.9316 10.4961C11.0547 10.6074 11.1475 10.7344 11.21 10.877C11.2744 11.0195 11.3066 11.1807 11.3066 11.3604C11.3066 11.5518 11.2695 11.7217 11.1953 11.8701C11.1211 12.0186 11.0146 12.1445 10.876 12.248C10.7373 12.3496 10.5713 12.4268 10.3779 12.4795C10.1846 12.5322 9.96875 12.5586 9.73047 12.5586C9.51172 12.5586 9.2959 12.5312 9.08301 12.4766C8.87207 12.4199 8.68066 12.334 8.50879 12.2188C8.33691 12.1016 8.19922 11.9521 8.0957 11.7705C7.99414 11.5869 7.94336 11.3691 7.94336 11.1172H8.97461C8.97461 11.2422 8.99121 11.3477 9.02441 11.4336C9.05762 11.5195 9.10645 11.5889 9.1709 11.6416C9.23535 11.6924 9.31445 11.7295 9.4082 11.7529C9.50195 11.7744 9.60938 11.7852 9.73047 11.7852C9.86133 11.7852 9.9668 11.7666 10.0469 11.7295C10.127 11.6904 10.1855 11.6396 10.2227 11.5771C10.2598 11.5127 10.2783 11.4424 10.2783 11.3662ZM15.3994 8.23438V12.5H14.374L12.8652 9.8457V12.5H11.8369V8.23438H12.8652L14.374 10.8887V8.23438H15.3994Z" fill="#8793AB"/>
</svg>
