<svg width="20" height="22" viewBox="0 0 20 22" fill="none" xmlns="http://www.w3.org/2000/svg">
<path fill-rule="evenodd" clip-rule="evenodd" d="M1.66663 11.1771C1.66663 6.57458 5.39746 2.84375 9.99996 2.84375C14.6025 2.84375 18.3333 6.57458 18.3333 11.1771C18.3333 15.7796 14.6025 19.5104 9.99996 19.5104C5.39746 19.5104 1.66663 15.7796 1.66663 11.1771ZM10.8333 12.0104C10.8333 12.4704 10.46 12.8438 9.99996 12.8438C9.53996 12.8438 9.16663 12.4704 9.16663 12.0104V7.84375C9.16663 7.38375 9.53996 7.01042 9.99996 7.01042C10.46 7.01042 10.8333 7.38375 10.8333 7.84375V12.0104ZM9.99996 15.3438C9.53996 15.3438 9.16663 14.9704 9.16663 14.5104C9.16663 14.0504 9.53996 13.6771 9.99996 13.6771C10.46 13.6771 10.8333 14.0504 10.8333 14.5104C10.8333 14.9704 10.46 15.3438 9.99996 15.3438Z" fill="#EF4D61"/>
<mask id="mask0_952_4972" style="mask-type:luminance" maskUnits="userSpaceOnUse" x="1" y="2" width="18" height="18">
<path fill-rule="evenodd" clip-rule="evenodd" d="M1.66663 11.1771C1.66663 6.57458 5.39746 2.84375 9.99996 2.84375C14.6025 2.84375 18.3333 6.57458 18.3333 11.1771C18.3333 15.7796 14.6025 19.5104 9.99996 19.5104C5.39746 19.5104 1.66663 15.7796 1.66663 11.1771ZM10.8333 12.0104C10.8333 12.4704 10.46 12.8438 9.99996 12.8438C9.53996 12.8438 9.16663 12.4704 9.16663 12.0104V7.84375C9.16663 7.38375 9.53996 7.01042 9.99996 7.01042C10.46 7.01042 10.8333 7.38375 10.8333 7.84375V12.0104ZM9.99996 15.3438C9.53996 15.3438 9.16663 14.9704 9.16663 14.5104C9.16663 14.0504 9.53996 13.6771 9.99996 13.6771C10.46 13.6771 10.8333 14.0504 10.8333 14.5104C10.8333 14.9704 10.46 15.3438 9.99996 15.3438Z" fill="white"/>
</mask>
<g mask="url(#mask0_952_4972)">
</g>
</svg>
