<svg width="23" height="22" viewBox="0 0 23 22" fill="none" xmlns="http://www.w3.org/2000/svg">
<path fill-rule="evenodd" clip-rule="evenodd" d="M22.615 7.48832C23.0266 8.30692 23.1118 9.25136 22.8532 10.1304C22.5946 11.0094 22.0117 11.7573 21.2224 12.2227C20.4331 12.688 19.4964 12.836 18.6021 12.6367C17.7077 12.4374 16.9226 11.9056 16.4056 11.1491L22.615 7.48832ZM6.84815 1.87069C7.34696 1.01186 8.16545 0.385401 9.12474 0.128208C10.084 -0.128984 11.1061 0.00400541 11.9677 0.498114C12.8253 0.997577 13.4507 1.81586 13.7074 2.77453C13.9642 3.7332 13.8316 4.75452 13.3384 5.61577C11.2074 9.30468 9.08209 12.958 6.95301 16.6488C6.45588 17.5002 5.64307 18.1213 4.69094 18.3772C3.73881 18.6331 2.72417 18.5032 1.86718 18.0158C1.01146 17.5198 0.386669 16.7055 0.129166 15.7506C-0.128337 14.7956 0.00236127 13.7776 0.492734 12.9187C2.6162 9.22604 4.71345 5.56522 6.84815 1.87069ZM8.96225 11.5236L3.95881 8.63619L1.24362 13.3381C0.863738 14.0024 0.761573 14.7899 0.959361 15.5291C1.15715 16.2684 1.63888 16.8996 2.29974 17.2855C2.96404 17.6662 3.75199 17.7686 4.49155 17.5704C5.23112 17.3722 5.86222 16.8894 6.24706 16.2275L8.96225 11.5236ZM16.9056 16.7387C17.2552 17.428 17.3745 18.2113 17.2459 18.9734C17.1173 19.7355 16.7477 20.4363 16.1913 20.9728C15.6349 21.5093 14.9211 21.8531 14.1548 21.9539C13.3885 22.0546 12.6101 21.9069 11.934 21.5324C11.438 21.2615 11.0137 20.8764 10.6962 20.4089L16.9056 16.7387ZM10.5277 16.6207C10.7573 16.206 11.0663 15.8407 11.4372 15.5455C11.808 15.2503 12.2334 15.031 12.689 14.9002C13.1446 14.7695 13.6215 14.7297 14.0924 14.7833C14.5634 14.8369 15.0192 14.9828 15.4338 15.2126C15.8937 15.465 16.292 15.8161 16.6003 16.2406L10.4116 19.8883C10.1707 19.3734 10.0556 18.8086 10.0758 18.2405C10.096 17.6724 10.2509 17.1172 10.5277 16.6207ZM16.2371 7.36848C16.5317 6.83858 16.9549 6.39136 17.4678 6.06804C17.9807 5.74472 18.5667 5.5557 19.1718 5.51839C19.777 5.48108 20.3817 5.59669 20.9305 5.85456C21.4792 6.11243 21.9541 6.50427 22.3116 6.99397L16.1191 10.6398C15.8799 10.1237 15.766 9.55846 15.7865 8.99002C15.807 8.42158 15.9614 7.866 16.2371 7.36848Z" fill="#535E6B"/>
</svg>
