<svg width="26" height="27" viewBox="0 0 26 27" fill="none" xmlns="http://www.w3.org/2000/svg">
<g clip-path="url(#clip0_1433_9072)">
<path d="M19.6601 17.8028L16.3131 15.2085L16.3039 15.2012C16.1291 15.0705 15.9246 14.9854 15.7087 14.9536C15.4928 14.9219 15.2724 14.9444 15.0675 15.0193C15.0434 15.0279 15.0198 15.038 14.9968 15.0494L12.6551 16.2326C11.5707 15.3371 10.6074 13.7696 10.3048 12.4114L12.4394 10.8436C12.4602 10.8276 12.4801 10.8113 12.4997 10.7933C12.6575 10.6453 12.7763 10.4606 12.8455 10.2556C12.9147 10.0506 12.9322 9.83167 12.8963 9.6183L12.8986 9.60873L12.1241 5.43729C12.076 5.15824 11.9389 4.90224 11.7333 4.70751C11.5277 4.51278 11.2647 4.38976 10.9834 4.35681C9.86872 4.23678 8.74845 4.52661 7.83184 5.17217C6.91523 5.81774 6.26495 6.77489 6.00247 7.86486C4.4662 14.1944 8.36599 20.594 14.6955 22.1303C15.7845 22.3966 16.9333 22.2575 17.9272 21.7388C18.9211 21.2201 19.6923 20.3574 20.0966 19.3117C20.1963 19.0468 20.2076 18.7567 20.129 18.4847C20.0503 18.2128 19.8858 17.9736 19.6601 17.8028ZM15.0051 20.8548C12.3005 20.1952 9.96801 18.4897 8.51937 16.1125C7.07074 13.7352 6.62427 10.8804 7.27794 8.17443C7.46388 7.39526 7.92708 6.71041 8.58103 6.24778C9.23498 5.78515 10.035 5.57638 10.8316 5.66045C10.8305 5.66355 10.8297 5.66675 10.8293 5.67001L11.594 9.82302L9.46752 11.3953C9.44613 11.4105 9.42595 11.4273 9.40719 11.4456C9.24254 11.6006 9.12073 11.7955 9.05354 12.0113C8.98635 12.2272 8.97607 12.4568 9.0237 12.6778C9.3874 14.3303 10.5172 16.1687 11.8352 17.2525C12.0114 17.3956 12.2218 17.4905 12.4458 17.528C12.6697 17.5655 12.8995 17.5443 13.1128 17.4664C13.1366 17.4575 13.1599 17.4474 13.1826 17.436L15.5218 16.2531L18.8612 18.8405C18.8612 18.8405 18.8676 18.842 18.87 18.8426C18.5805 19.5905 18.0284 20.2074 17.3171 20.5777C16.6057 20.9481 15.7838 21.0466 15.0051 20.8548Z" fill="#535E6B"/>
</g>
<defs>
<clipPath id="clip0_1433_9072">
<rect width="21" height="21" fill="white" transform="translate(5 0.868164) rotate(13.6428)"/>
</clipPath>
</defs>
</svg>
