<svg width="21" height="21" viewBox="0 0 21 21" fill="none" xmlns="http://www.w3.org/2000/svg">
<path d="M17.7532 3.24835C16.9339 2.42904 15.8226 1.96875 14.6639 1.96875C13.5052 1.96875 12.394 2.42904 11.5746 3.24835L3.24846 11.5737C2.44627 12.3965 2.00056 13.5023 2.0079 14.6514C2.01524 15.8006 2.47503 16.9006 3.28766 17.7131C4.1003 18.5256 5.20034 18.9853 6.34948 18.9925C7.49862 18.9996 8.60433 18.5538 9.42706 17.7515L17.754 9.42613C18.572 8.60618 19.0313 7.49524 19.0311 6.33707C19.031 5.1789 18.5714 4.06808 17.7532 3.24835ZM8.49928 16.8237C7.92612 17.397 7.1487 17.7191 6.33805 17.7192C5.5274 17.7192 4.74992 17.3973 4.17665 16.8241C3.60338 16.251 3.28127 15.4735 3.28119 14.6629C3.28112 13.8522 3.60307 13.0748 4.17624 12.5015L7.87503 8.80269L12.1981 13.1249L8.49928 16.8237ZM16.8255 8.49835L13.125 12.1971L8.80362 7.87492L12.5032 4.17613C13.0787 3.61399 13.8525 3.30136 14.6569 3.30606C15.4614 3.31076 16.2315 3.63241 16.8003 4.20123C17.3692 4.77006 17.6908 5.54021 17.6955 6.34464C17.7002 7.14907 17.3876 7.92292 16.8255 8.49835ZM15.5597 6.75437C15.6207 6.81532 15.6691 6.8877 15.7022 6.96736C15.7352 7.04703 15.7522 7.13243 15.7522 7.21867C15.7522 7.30491 15.7352 7.3903 15.7022 7.46997C15.6691 7.54964 15.6207 7.62202 15.5597 7.68296L13.591 9.65171C13.53 9.71263 13.4576 9.76095 13.378 9.79389C13.2983 9.82684 13.213 9.84378 13.1268 9.84374C13.0406 9.8437 12.9553 9.82669 12.8756 9.79367C12.796 9.76065 12.7237 9.71228 12.6628 9.6513C12.6019 9.59033 12.5535 9.51796 12.5206 9.43831C12.4877 9.35867 12.4707 9.27332 12.4708 9.18713C12.4708 9.10094 12.4878 9.0156 12.5208 8.93598C12.5538 8.85637 12.6022 8.78404 12.6632 8.72312L14.6319 6.75437C14.755 6.63139 14.9219 6.56231 15.0958 6.56231C15.2698 6.56231 15.4367 6.63139 15.5597 6.75437Z" fill="#535E6B"/>
</svg>
