<svg width="17" height="27" viewBox="0 0 17 27" fill="none" xmlns="http://www.w3.org/2000/svg">
<path d="M16.9036 15.3528C15.6601 13.2029 13.7437 11.6613 11.5072 10.9305C12.6135 10.272 13.473 9.26848 13.9537 8.07417C14.4344 6.87986 14.5098 5.56076 14.1683 4.31945C13.8268 3.07814 13.0873 1.98326 12.0633 1.20293C11.0393 0.422611 9.78743 0 8.5 0C7.21257 0 5.96073 0.422611 4.93673 1.20293C3.91273 1.98326 3.17318 3.07814 2.83167 4.31945C2.49016 5.56076 2.56556 6.87986 3.04629 8.07417C3.52702 9.26848 4.38651 10.272 5.49276 10.9305C3.25631 11.6605 1.33994 13.2021 0.096379 15.3528C0.0507755 15.4272 0.020527 15.5099 0.00741823 15.5961C-0.00569053 15.6824 -0.00139402 15.7704 0.0200543 15.8549C0.0415025 15.9395 0.0796682 16.0189 0.132299 16.0884C0.18493 16.158 0.250961 16.2163 0.326495 16.2599C0.402029 16.3036 0.485536 16.3316 0.57209 16.3425C0.658644 16.3533 0.746491 16.3467 0.830448 16.323C0.914405 16.2993 0.992771 16.2591 1.06092 16.2047C1.12908 16.1502 1.18563 16.0827 1.22726 16.006C2.76558 13.3474 5.48459 11.7601 8.5 11.7601C11.5154 11.7601 14.2344 13.3474 15.7727 16.006C15.8144 16.0827 15.8709 16.1502 15.9391 16.2047C16.0072 16.2591 16.0856 16.2993 16.1695 16.323C16.2535 16.3467 16.3414 16.3533 16.4279 16.3425C16.5145 16.3316 16.598 16.3036 16.6735 16.2599C16.749 16.2163 16.8151 16.158 16.8677 16.0884C16.9203 16.0189 16.9585 15.9395 16.9799 15.8549C17.0014 15.7704 17.0057 15.6824 16.9926 15.5961C16.9795 15.5099 16.9492 15.4272 16.9036 15.3528ZM3.92749 5.88116C3.92749 4.97681 4.19566 4.09276 4.6981 3.34081C5.20053 2.58887 5.91466 2.0028 6.75018 1.65671C7.58569 1.31063 8.50507 1.22008 9.39205 1.39651C10.279 1.57294 11.0938 2.00843 11.7333 2.64791C12.3727 3.28739 12.8082 4.10213 12.9847 4.98911C13.1611 5.87609 13.0705 6.79547 12.7244 7.63099C12.3784 8.46651 11.7923 9.18063 11.0403 9.68307C10.2884 10.1855 9.40436 10.4537 8.5 10.4537C7.28769 10.4524 6.12541 9.97022 5.26818 9.11299C4.41095 8.25575 3.92879 7.09347 3.92749 5.88116Z" fill="#020E1A"/>
<path d="M8.47375 20.8137L8.54193 18.9387L6.9567 19.9443L6.54761 19.2284L8.21807 18.3591L6.54761 17.4898L6.9567 16.7739L8.54193 17.7796L8.47375 15.9046H9.29193L9.22375 17.7796L10.809 16.7739L11.2181 17.4898L9.54761 18.3591L11.2181 19.2284L10.809 19.9443L9.22375 18.9387L9.29193 20.8137H8.47375Z" fill="#020E1A"/>
</svg>
