<svg width="10" height="10" viewBox="0 0 10 10" fill="none" xmlns="http://www.w3.org/2000/svg">
<path d="M6.81058 3.73365L5.54375 5L6.81058 6.26634C6.84631 6.30208 6.87466 6.3445 6.894 6.39119C6.91334 6.43788 6.92329 6.48792 6.92329 6.53846C6.92329 6.589 6.91334 6.63904 6.894 6.68573C6.87466 6.73242 6.84631 6.77484 6.81058 6.81058C6.77484 6.84631 6.73242 6.87466 6.68573 6.894C6.63904 6.91334 6.589 6.92329 6.53846 6.92329C6.48793 6.92329 6.43788 6.91334 6.39119 6.894C6.3445 6.87466 6.30208 6.84631 6.26635 6.81058L5 5.54375L3.73366 6.81058C3.69792 6.84631 3.6555 6.87466 3.60881 6.894C3.56212 6.91334 3.51208 6.92329 3.46154 6.92329C3.411 6.92329 3.36096 6.91334 3.31427 6.894C3.26758 6.87466 3.22516 6.84631 3.18942 6.81058C3.15369 6.77484 3.12534 6.73242 3.106 6.68573C3.08666 6.63904 3.07671 6.589 3.07671 6.53846C3.07671 6.48792 3.08666 6.43788 3.106 6.39119C3.12534 6.3445 3.15369 6.30208 3.18942 6.26634L4.45625 5L3.18942 3.73365C3.11725 3.66148 3.07671 3.5636 3.07671 3.46154C3.07671 3.35947 3.11725 3.26159 3.18942 3.18942C3.26159 3.11725 3.35948 3.07671 3.46154 3.07671C3.5636 3.07671 3.66149 3.11725 3.73366 3.18942L5 4.45625L6.26635 3.18942C6.30208 3.15369 6.3445 3.12534 6.39119 3.106C6.43788 3.08666 6.48793 3.07671 6.53846 3.07671C6.589 3.07671 6.63904 3.08666 6.68573 3.106C6.73242 3.12534 6.77484 3.15369 6.81058 3.18942C6.84631 3.22516 6.87466 3.26758 6.894 3.31427C6.91334 3.36096 6.92329 3.411 6.92329 3.46154C6.92329 3.51207 6.91334 3.56212 6.894 3.60881C6.87466 3.6555 6.84631 3.69792 6.81058 3.73365ZM10 5C10 5.98891 9.70676 6.9556 9.15735 7.77785C8.60794 8.60009 7.82705 9.24096 6.91342 9.6194C5.99979 9.99783 4.99445 10.0969 4.02455 9.90392C3.05465 9.711 2.16373 9.23479 1.46447 8.53553C0.765206 7.83627 0.289002 6.94536 0.0960758 5.97545C-0.0968502 5.00555 0.00216642 4.00021 0.380605 3.08658C0.759043 2.17295 1.3999 1.39206 2.22215 0.842652C3.0444 0.293245 4.01109 0 5 0C6.32565 0.00139991 7.59661 0.528633 8.53399 1.46601C9.47137 2.40339 9.9986 3.67435 10 5ZM9.23077 5C9.23077 4.16323 8.98264 3.34526 8.51776 2.64951C8.05287 1.95376 7.39212 1.4115 6.61905 1.09128C5.84597 0.771062 4.99531 0.687279 4.17462 0.850524C3.35393 1.01377 2.60008 1.41671 2.0084 2.00839C1.41671 2.60008 1.01377 3.35393 0.850526 4.17462C0.687281 4.99531 0.771064 5.84597 1.09128 6.61904C1.4115 7.39212 1.95377 8.05287 2.64951 8.51775C3.34526 8.98264 4.16323 9.23077 5 9.23077C6.12168 9.2295 7.19705 8.78335 7.9902 7.9902C8.78335 7.19705 9.2295 6.12168 9.23077 5Z" fill="black"/>
</svg>
