<svg width="15" height="14" viewBox="0 0 15 14" fill="none" xmlns="http://www.w3.org/2000/svg">
<path d="M14.0294 12.8882L10.812 9.68004C11.7445 8.56347 12.2095 7.13133 12.1103 5.68154C12.011 4.23174 11.3552 2.87592 10.2791 1.89612C9.20306 0.916315 7.78967 0.387967 6.33298 0.420984C4.87628 0.454002 3.48842 1.04584 2.45811 2.07339C1.4278 3.10093 0.834374 4.48507 0.801268 5.93786C0.768162 7.39066 1.29793 8.80025 2.28037 9.87342C3.2628 10.9466 4.62227 11.6007 6.07596 11.6997C7.52965 11.7987 8.96564 11.3349 10.0852 10.4049L13.302 13.6137C13.3498 13.6613 13.4065 13.6991 13.4689 13.7249C13.5313 13.7506 13.5981 13.7639 13.6657 13.7639C13.7332 13.7639 13.8001 13.7506 13.8625 13.7249C13.9249 13.6991 13.9816 13.6613 14.0294 13.6137C14.0772 13.566 14.115 13.5095 14.1409 13.4472C14.1667 13.385 14.18 13.3183 14.18 13.2509C14.18 13.1836 14.1667 13.1169 14.1409 13.0546C14.115 12.9924 14.0772 12.9358 14.0294 12.8882ZM1.84214 6.07327C1.84214 5.16067 2.11349 4.26856 2.62187 3.50976C3.13024 2.75096 3.85282 2.15954 4.69822 1.8103C5.54363 1.46107 6.47388 1.36969 7.37136 1.54773C8.26883 1.72577 9.09321 2.16523 9.74026 2.81054C10.3873 3.45585 10.8279 4.27802 11.0065 5.17309C11.185 6.06815 11.0934 6.99592 10.7432 7.83905C10.393 8.68219 9.8 9.40283 9.03916 9.90984C8.27831 10.4169 7.38381 10.6875 6.46875 10.6875C5.24212 10.6861 4.06611 10.1995 3.19875 9.33451C2.33139 8.46947 1.8435 7.29662 1.84214 6.07327Z" fill="#777373"/>
</svg>
