<svg width="22" height="22" viewBox="0 0 22 22" fill="none" xmlns="http://www.w3.org/2000/svg">
<path d="M18.2188 13.0625C18.2188 13.2665 18.1583 13.4658 18.045 13.6354C17.9316 13.805 17.7706 13.9372 17.5821 14.0153C17.3937 14.0933 17.1864 14.1137 16.9863 14.0739C16.7863 14.0341 16.6025 13.9359 16.4583 13.7917C16.3141 13.6475 16.2159 13.4637 16.1761 13.2637C16.1363 13.0636 16.1567 12.8563 16.2347 12.6679C16.3128 12.4794 16.445 12.3184 16.6146 12.205C16.7842 12.0917 16.9835 12.0312 17.1875 12.0312C17.461 12.0312 17.7233 12.1399 17.9167 12.3333C18.1101 12.5267 18.2188 12.789 18.2188 13.0625ZM17.8277 16.439C17.6767 17.4125 17.1828 18.3 16.4351 18.9415C15.6875 19.583 14.7352 19.9362 13.75 19.9375H11.6875C10.5938 19.9364 9.54528 19.5014 8.77194 18.7281C7.9986 17.9547 7.56364 16.9062 7.5625 15.8125V12.3312C6.2335 12.1637 5.01129 11.517 4.12523 10.5125C3.23917 9.5079 2.75017 8.2145 2.75 6.875V3.4375C2.75 3.07283 2.89487 2.72309 3.15273 2.46523C3.41059 2.20737 3.76033 2.0625 4.125 2.0625H5.5C5.68234 2.0625 5.8572 2.13493 5.98614 2.26386C6.11507 2.3928 6.1875 2.56766 6.1875 2.75C6.1875 2.93234 6.11507 3.1072 5.98614 3.23614C5.8572 3.36507 5.68234 3.4375 5.5 3.4375H4.125V6.875C4.12495 7.42136 4.23344 7.96229 4.44417 8.46638C4.65491 8.97046 4.96368 9.42767 5.35256 9.81143C5.74145 10.1952 6.2027 10.4979 6.70954 10.7019C7.21637 10.906 7.75869 11.0073 8.305 11C10.5488 10.9708 12.375 9.08789 12.375 6.80367V3.4375H11C10.8177 3.4375 10.6428 3.36507 10.5139 3.23614C10.3849 3.1072 10.3125 2.93234 10.3125 2.75C10.3125 2.56766 10.3849 2.3928 10.5139 2.26386C10.6428 2.13493 10.8177 2.0625 11 2.0625H12.375C12.7397 2.0625 13.0894 2.20737 13.3473 2.46523C13.6051 2.72309 13.75 3.07283 13.75 3.4375V6.80367C13.75 9.62586 11.642 11.9848 8.9375 12.3303V15.8125C8.9375 16.5418 9.22723 17.2413 9.74296 17.757C10.2587 18.2728 10.9582 18.5625 11.6875 18.5625H13.75C14.3745 18.5615 14.9801 18.3483 15.4676 17.958C15.9551 17.5676 16.2954 17.0232 16.433 16.4141C15.6027 16.2276 14.8711 15.7397 14.3797 15.0449C13.8884 14.3501 13.6722 13.4977 13.7731 12.6527C13.8739 11.8077 14.2846 11.0302 14.9257 10.4706C15.5668 9.91091 16.3926 9.60895 17.2435 9.62311C18.0944 9.63726 18.9098 9.96653 19.5319 10.5472C20.154 11.1278 20.5386 11.9186 20.6113 12.7665C20.684 13.6144 20.4396 14.4591 19.9254 15.1372C19.4112 15.8152 18.6638 16.2785 17.8277 16.4373V16.439ZM19.25 13.0625C19.25 12.6546 19.129 12.2558 18.9024 11.9166C18.6758 11.5775 18.3537 11.3131 17.9768 11.157C17.5999 11.0009 17.1852 10.96 16.7851 11.0396C16.385 11.1192 16.0175 11.3156 15.7291 11.6041C15.4406 11.8925 15.2442 12.26 15.1646 12.6601C15.085 13.0602 15.1259 13.4749 15.282 13.8518C15.4381 14.2287 15.7025 14.5508 16.0416 14.7774C16.3808 15.004 16.7796 15.125 17.1875 15.125C17.7345 15.125 18.2591 14.9077 18.6459 14.5209C19.0327 14.1341 19.25 13.6095 19.25 13.0625Z" fill="#535E6B"/>
</svg>
