<svg width="16" height="17" viewBox="0 0 16 17" fill="none" xmlns="http://www.w3.org/2000/svg">
<path d="M14 4.48665C11.78 4.26665 9.54667 4.15332 7.32 4.15332C6 4.15332 4.68 4.21999 3.36 4.35332L2 4.48665" stroke="#D93B4E" stroke-width="1.5" stroke-linecap="round" stroke-linejoin="round"/>
<path d="M5.66675 3.81334L5.81341 2.94001C5.92008 2.30668 6.00008 1.83334 7.12675 1.83334H8.87341C10.0001 1.83334 10.0867 2.33334 10.1867 2.94668L10.3334 3.81334" stroke="#D93B4E" stroke-width="1.5" stroke-linecap="round" stroke-linejoin="round"/>
<path d="M12.5667 6.59332L12.1334 13.3067C12.06 14.3533 12 15.1667 10.14 15.1667H5.86002C4.00002 15.1667 3.94002 14.3533 3.86668 13.3067L3.43335 6.59332" stroke="#D93B4E" stroke-width="1.5" stroke-linecap="round" stroke-linejoin="round"/>
<path d="M6.88672 11.5H9.10672" stroke="#D93B4E" stroke-width="1.5" stroke-linecap="round" stroke-linejoin="round"/>
<path d="M6.3335 8.83334H9.66683" stroke="#D93B4E" stroke-width="1.5" stroke-linecap="round" stroke-linejoin="round"/>
</svg>
