<svg width="14" height="15" viewBox="0 0 14 15" fill="none" xmlns="http://www.w3.org/2000/svg">
<path d="M9.86174 8.97393H12.4148V12.8465H1.90258V8.97393H4.45563C4.62258 8.97393 4.77736 8.89697 4.88771 8.76921C4.99746 8.64215 5.05614 8.47395 5.05614 8.30236C5.05614 8.13077 4.99746 7.96257 4.88771 7.8355C4.77736 7.70775 4.62258 7.63079 4.45563 7.63079H1.75258C1.46615 7.63079 1.19678 7.7627 1.00195 7.98827C0.807709 8.21314 0.701562 8.51401 0.701562 8.82393V12.9965C0.701562 13.3064 0.807709 13.6073 1.00195 13.8321C1.19678 14.0577 1.46615 14.1896 1.75258 14.1896H12.5648C12.8512 14.1896 13.1206 14.0577 13.3154 13.8321C13.5097 13.6073 13.6158 13.3064 13.6158 12.9965V8.82393C13.6158 8.51401 13.5097 8.21314 13.3154 7.98827C13.1206 7.7627 12.8512 7.63079 12.5648 7.63079H9.86174C9.69479 7.63079 9.54001 7.70775 9.42966 7.8355C9.31991 7.96257 9.26123 8.13077 9.26123 8.30236C9.26123 8.47395 9.31991 8.64215 9.42966 8.76921C9.54001 8.89697 9.69479 8.97393 9.86174 8.97393ZM4.88788 5.11845L4.8879 5.11843L6.55818 3.18413V8.30236C6.55818 8.47395 6.61686 8.64215 6.72661 8.76921C6.83696 8.89697 6.99174 8.97393 7.15868 8.97393C7.32563 8.97393 7.48041 8.89697 7.59076 8.76921C7.70051 8.64215 7.75919 8.47395 7.75919 8.30236V3.18413L9.42947 5.11843L9.42948 5.11845C9.53988 5.24625 9.69472 5.32324 9.86174 5.32324C10.0287 5.32324 10.1836 5.24625 10.294 5.11845C10.4038 4.99133 10.4625 4.82305 10.4625 4.65138C10.4625 4.47972 10.4038 4.31144 10.294 4.18432L7.59099 1.05498C7.59097 1.05496 7.59095 1.05494 7.59094 1.05492C7.53639 0.99171 7.47041 0.940188 7.3961 0.904525C7.32167 0.868804 7.24092 0.85 7.15868 0.85C7.07645 0.85 6.9957 0.868804 6.92126 0.904525C6.84696 0.940188 6.78098 0.991709 6.72643 1.05492C6.72641 1.05494 6.7264 1.05496 6.72638 1.05498L4.02338 4.18432C3.91358 4.31144 3.85487 4.47972 3.85487 4.65138C3.85487 4.82305 3.91358 4.99133 4.02338 5.11844C4.13377 5.24625 4.28862 5.32324 4.45563 5.32324C4.62264 5.32324 4.77749 5.24625 4.88788 5.11845ZM11.3633 10.9102C11.3633 10.7303 11.3173 10.553 11.2293 10.4006C11.1413 10.248 11.014 10.1256 10.861 10.0521C10.7074 9.97852 10.5369 9.95874 10.372 9.9967C10.2075 10.0346 10.0598 10.1273 9.94615 10.2589C9.83264 10.3904 9.75727 10.5553 9.72689 10.7322C9.6965 10.909 9.71197 11.0925 9.77194 11.2601C9.83193 11.4278 9.93468 11.5744 10.0703 11.6793C10.2062 11.7845 10.3688 11.8425 10.5375 11.8425C10.7642 11.8425 10.9763 11.7381 11.1289 11.5615C11.2808 11.3855 11.3633 11.151 11.3633 10.9102Z" fill="#4D598E" stroke="#4D598E" stroke-width="0.3"/>
</svg>
