<svg width="21" height="21" viewBox="0 0 21 21" fill="none" xmlns="http://www.w3.org/2000/svg">
<path d="M18.9431 17.3904C17.6937 15.2305 15.7685 13.6818 13.5216 12.9476C14.633 12.286 15.4965 11.2778 15.9795 10.078C16.4624 8.87812 16.5382 7.5529 16.1951 6.30583C15.852 5.05875 15.109 3.95878 14.0802 3.17483C13.0515 2.39088 11.7938 1.96631 10.5004 1.96631C9.20701 1.96631 7.94936 2.39088 6.9206 3.17483C5.89184 3.95878 5.14886 5.05875 4.80576 6.30583C4.46266 7.5529 4.53841 8.87812 5.02138 10.078C5.50435 11.2778 6.36782 12.286 7.47921 12.9476C5.23237 13.681 3.3071 15.2297 2.05776 17.3904C2.01195 17.4651 1.98156 17.5482 1.96839 17.6349C1.95522 17.7215 1.95954 17.8099 1.98108 17.8949C2.00263 17.9798 2.04098 18.0596 2.09385 18.1295C2.14673 18.1994 2.21306 18.2579 2.28895 18.3018C2.36483 18.3456 2.44873 18.3738 2.53568 18.3847C2.62264 18.3956 2.7109 18.3889 2.79524 18.3651C2.87959 18.3414 2.95832 18.3009 3.02679 18.2462C3.09526 18.1915 3.15208 18.1237 3.1939 18.0467C4.73937 15.3757 7.47101 13.781 10.5004 13.781C13.5298 13.781 16.2615 15.3757 17.8069 18.0467C17.8488 18.1237 17.9056 18.1915 17.9741 18.2462C18.0425 18.3009 18.1213 18.3414 18.2056 18.3651C18.2899 18.3889 18.3782 18.3956 18.4652 18.3847C18.5521 18.3738 18.636 18.3456 18.7119 18.3018C18.7878 18.2579 18.8541 18.1994 18.907 18.1295C18.9599 18.0596 18.9982 17.9798 19.0198 17.8949C19.0413 17.8099 19.0456 17.7215 19.0324 17.6349C19.0193 17.5482 18.9889 17.4651 18.9431 17.3904ZM5.90667 7.87479C5.90667 6.96623 6.17609 6.07808 6.68086 5.32264C7.18562 4.5672 7.90307 3.97841 8.74247 3.63072C9.58187 3.28303 10.5055 3.19206 11.3966 3.36931C12.2877 3.54656 13.1062 3.98407 13.7487 4.62652C14.3911 5.26897 14.8287 6.08749 15.0059 6.97859C15.1832 7.8697 15.0922 8.79334 14.7445 9.63274C14.3968 10.4721 13.808 11.1896 13.0526 11.6944C12.2971 12.1991 11.409 12.4685 10.5004 12.4685C9.28248 12.4672 8.1148 11.9828 7.25359 11.1216C6.39237 10.2604 5.90797 9.09273 5.90667 7.87479Z" fill="#535E6B"/>
</svg>
